<?xml version="1.0" encoding="utf-8"?>
<!-- Generator: Adobe Illustrator 22.0.0, SVG Export Plug-In . SVG Version: 6.00 Build 0)  -->
<svg version="1.1" id="Layer_1" xmlns="http://www.w3.org/2000/svg" xmlns:xlink="http://www.w3.org/1999/xlink" x="0px" y="0px"
	 viewBox="0 0 1265 1489.5" style="enable-background:new 0 0 1265 1489.5;" xml:space="preserve">
<style type="text/css">
	.st0{fill:#AFA7AA;stroke:#070707;stroke-width:10;stroke-miterlimit:10;}
	.st1{fill:url(#SVGID_1_);}
	.st2{fill:#F37897;}
	.st3{fill:#D35F80;}
	.st4{fill:#BC5174;}
	.st5{fill:url(#SVGID_2_);}
	.st6{fill:#AFA7AA;}
	.st7{fill:url(#SVGID_3_);}
	.st8{fill:#8D4400;stroke:#050505;stroke-width:3;stroke-miterlimit:10;}
	.st9{fill:#4C1A00;stroke:#070707;stroke-width:4;stroke-miterlimit:10;}
	.st10{fill:url(#SVGID_4_);}
	.st11{fill:url(#SVGID_5_);}
	.st12{fill:url(#SVGID_6_);}
	.st13{fill:url(#SVGID_7_);}
	.st14{fill:url(#SVGID_8_);}
	.st15{fill:url(#SVGID_9_);}
	.st16{fill:#0C0C0C;stroke:#000000;stroke-width:10;stroke-miterlimit:10;}
	.st17{fill:#AFA7AA;stroke:#000000;stroke-width:10;stroke-miterlimit:10;}
	.st18{fill:#8C8588;stroke:#070707;stroke-miterlimit:10;}
	.st19{fill:#514F50;stroke:#070707;stroke-miterlimit:10;}
	.st20{fill:url(#SVGID_10_);}
	.st21{fill:url(#SVGID_11_);}
	.st22{fill:none;stroke:#0C0C0C;stroke-width:16;stroke-miterlimit:10;}
	.st23{opacity:0.67;}
</style>
<image style="overflow:visible;" width="690" height="690" xlink:href="EC2A4834C169CE36.jpg"  transform="matrix(1.51 0 0 1.51 112.8598 99.8156)">
</image>
<rect x="5.3" y="4.3" class="st0" width="1254.7" height="1254.7"/>
<linearGradient id="SVGID_1_" gradientUnits="userSpaceOnUse" x1="633.6946" y1="-13.8244" x2="633.6946" y2="903.3675">
	<stop  offset="0" style="stop-color:#FFFFFF"/>
	<stop  offset="0.4609" style="stop-color:#00958C"/>
	<stop  offset="0.584" style="stop-color:#039389"/>
	<stop  offset="0.6739" style="stop-color:#0C8E80"/>
	<stop  offset="0.7533" style="stop-color:#1A8570"/>
	<stop  offset="0.8265" style="stop-color:#2F7959"/>
	<stop  offset="0.8956" style="stop-color:#4B693C"/>
	<stop  offset="0.9606" style="stop-color:#6B5519"/>
	<stop  offset="1" style="stop-color:#834700"/>
</linearGradient>
<polygon class="st1" points="110.1,96.9 109.4,1161.1 1154.8,1161.7 1158,96.9 "/>
<polyline class="st2" points="112.9,786.7 137,823.5 160.3,786.7 173.8,823.5 188.5,823.5 213,773.2 230.2,814.9 251,798.3 
	274.3,849.2 445.8,849.2 464.2,874.9 507.1,874.9 520.6,897 654.2,897 682.4,876.2 811,876.2 847.8,897 878.4,867.6 925,887.2 
	958.1,887.2 996.1,868.8 1012,810 1030.4,811.2 1042.7,737.7 1058.6,786.7 1077,789.2 1091.7,837 1111.3,837 1123.5,873.7 
	1154.8,832 1154.8,1141.7 112.9,1141.7 112.9,786.7 "/>
<path class="st3" d="M112.9,942.3l112.4-9.8l12.3,15.9l30.6-25.7h24.5l14.7-23.3l28.2,24.5l17.2-13.5l71.1,31.9l33.1-11l58.8,25.7
	l29.4-15.9l38,15.9h73.5l28.2-23.3l58.8,23.3l107.8-19.6l27-50.2l23.3,22.1l23.3-42.9l27,58.8l18.4-13.5l18.4,19.6l22.1-49
	l24.5,42.9l19.6,2.5l29.4-30.6l19.6,40.4l28.2-17.2l22.7,15.9v205.5c0,0-1041.9,8.2-1041.9,0S112.9,942.3,112.9,942.3z"/>
<path class="st4" d="M112.9,1020.8h25.4l25.7-23.3h39.2v-15.9l36.8,25.7v-25.7l47.8,31.9l40.4-2.5l20.8-22.1l45.3,12.3l28.2-19.6
	L463,1011l49-15.9v-20.8l29.4,23.3v-23.3l40.4,23.3l40.4-14.7l40.4,14.7l41.7-6.1l14.7,17.2l67.4,1.2l18.4-35.5l24.5,23.3l18.4-23.3
	c0,0,24.5,38,29.4,38s44.1-2.5,44.1-2.5l27-12.3l18.4-23.3l18.4,13.5c0,0,7.4-29.4,11-27c3.7,2.5,27,47.8,27,47.8h18.4l18.4-41.7
	l22.1,45.3l72.9-11v140.6H112.9V1020.8z"/>
<linearGradient id="SVGID_2_" gradientUnits="userSpaceOnUse" x1="899.2725" y1="614.6525" x2="1026.724" y2="614.6525">
	<stop  offset="0" style="stop-color:#AFA7AA"/>
	<stop  offset="0.2727" style="stop-color:#B2AAAD"/>
	<stop  offset="0.4717" style="stop-color:#BAB3B6"/>
	<stop  offset="0.6474" style="stop-color:#C9C3C5"/>
	<stop  offset="0.8096" style="stop-color:#DDDADB"/>
	<stop  offset="0.9611" style="stop-color:#F7F6F7"/>
	<stop  offset="1" style="stop-color:#FFFFFF"/>
</linearGradient>
<circle class="st5" cx="963" cy="614.7" r="63.7"/>
<circle class="st6" cx="849" cy="577.1" r="15.9"/>
<linearGradient id="SVGID_3_" gradientUnits="userSpaceOnUse" x1="633.5486" y1="1254.1823" x2="633.5486" y2="923.031">
	<stop  offset="3.357754e-02" style="stop-color:#B5B191"/>
	<stop  offset="1" style="stop-color:#834700"/>
</linearGradient>
<path class="st7" d="M113.2,1094.3c0,0-2.6,60.3,0,64.6c3,5,1041.9,0,1041.9,0v-64.6H113.2z"/>
<path class="st8" d="M139.9,1117.6l-6.8,14.3c0,0,1.1,24,84.6,22.6c83.5-1.5,73.8-24.2,73.8-24.2l-7.6-13.2L139.9,1117.6z"/>
<ellipse class="st9" cx="212" cy="1117.6" rx="72" ry="19"/>
<linearGradient id="SVGID_4_" gradientUnits="userSpaceOnUse" x1="212.7804" y1="1131.3254" x2="212.7804" y2="1086.7462">
	<stop  offset="0" style="stop-color:#000000"/>
	<stop  offset="1" style="stop-color:#834700"/>
</linearGradient>
<ellipse class="st10" cx="212.8" cy="1116.3" rx="53.1" ry="14"/>
<path class="st8" d="M304.7,1117.6l-6.8,14.3c0,0,1.1,24,84.6,22.6c83.5-1.5,73.8-24.2,73.8-24.2l-7.6-13.2L304.7,1117.6z"/>
<ellipse class="st9" cx="376.7" cy="1117.6" rx="72" ry="19"/>
<linearGradient id="SVGID_5_" gradientUnits="userSpaceOnUse" x1="377.5215" y1="1131.3254" x2="377.5215" y2="1086.7462">
	<stop  offset="0" style="stop-color:#000000"/>
	<stop  offset="1" style="stop-color:#834700"/>
</linearGradient>
<ellipse class="st11" cx="377.5" cy="1116.3" rx="53.1" ry="14"/>
<path class="st8" d="M472.1,1117.6l-6.8,14.3c0,0,1.1,24,84.6,22.6c83.5-1.5,73.8-24.2,73.8-24.2l-7.6-13.2L472.1,1117.6z"/>
<ellipse class="st9" cx="544.1" cy="1117.6" rx="72" ry="19"/>
<linearGradient id="SVGID_6_" gradientUnits="userSpaceOnUse" x1="544.8899" y1="1131.3254" x2="544.8899" y2="1086.7462">
	<stop  offset="0" style="stop-color:#000000"/>
	<stop  offset="1" style="stop-color:#834700"/>
</linearGradient>
<ellipse class="st12" cx="544.9" cy="1116.3" rx="53.1" ry="14"/>
<path class="st8" d="M640.6,1117.6l-6.8,14.3c0,0,1.1,24,84.6,22.6c83.5-1.5,73.8-24.2,73.8-24.2l-7.6-13.2L640.6,1117.6z"/>
<ellipse class="st9" cx="712.6" cy="1117.6" rx="72" ry="19"/>
<linearGradient id="SVGID_7_" gradientUnits="userSpaceOnUse" x1="713.4261" y1="1131.3254" x2="713.4261" y2="1086.7462">
	<stop  offset="0" style="stop-color:#000000"/>
	<stop  offset="1" style="stop-color:#834700"/>
</linearGradient>
<ellipse class="st13" cx="713.4" cy="1116.3" rx="53.1" ry="14"/>
<path class="st8" d="M996.6,1117.6l-6.8,14.3c0,0,1.1,24,84.6,22.6c83.5-1.5,73.8-24.2,73.8-24.2l-7.6-13.2L996.6,1117.6z"/>
<ellipse class="st9" cx="1068.6" cy="1117.6" rx="72" ry="19"/>
<linearGradient id="SVGID_8_" gradientUnits="userSpaceOnUse" x1="1069.4022" y1="1131.3254" x2="1069.4022" y2="1086.7462">
	<stop  offset="0" style="stop-color:#000000"/>
	<stop  offset="1" style="stop-color:#834700"/>
</linearGradient>
<ellipse class="st14" cx="1069.4" cy="1116.3" rx="53.1" ry="14"/>
<path class="st8" d="M818.6,1117.6l-6.8,14.3c0,0,1.1,24,84.6,22.6c83.5-1.5,73.8-24.2,73.8-24.2l-7.6-13.2L818.6,1117.6z"/>
<ellipse class="st9" cx="890.6" cy="1117.6" rx="72" ry="19"/>
<linearGradient id="SVGID_9_" gradientUnits="userSpaceOnUse" x1="891.4141" y1="1131.3254" x2="891.4141" y2="1086.7462">
	<stop  offset="0" style="stop-color:#000000"/>
	<stop  offset="1" style="stop-color:#834700"/>
</linearGradient>
<ellipse class="st15" cx="891.4" cy="1116.3" rx="53.1" ry="14"/>
<line class="st16" x1="1259.8" y1="1259.4" x2="1154.8" y2="1161.7"/>
<line class="st16" x1="109.4" y1="1159.5" x2="5" y2="1259.4"/>
<line class="st17" x1="1259.8" y1="4.7" x2="1155.7" y2="99"/>
<path class="st17" d="M112.9,99.8C107.3,92.5,5,4.7,5,4.7"/>
<polygon class="st18" points="1154.8,1161.7 1259.8,1259.4 1256.7,11.6 1157.6,101.8 "/>
<polygon class="st18" points="109.4,1159.5 8.5,1254.2 8.5,11.6 110.3,99.8 "/>
<polygon class="st19" points="114.6,96.9 13.2,7.9 1251.9,7.9 1153.6,96.9 "/>
<linearGradient id="SVGID_10_" gradientUnits="userSpaceOnUse" x1="265.8862" y1="278.8023" x2="293.9442" y2="278.8023">
	<stop  offset="0" style="stop-color:#AFA7AA"/>
	<stop  offset="0.2727" style="stop-color:#B2AAAD"/>
	<stop  offset="0.4717" style="stop-color:#BAB3B6"/>
	<stop  offset="0.6474" style="stop-color:#C9C3C5"/>
	<stop  offset="0.8096" style="stop-color:#DDDADB"/>
	<stop  offset="0.9611" style="stop-color:#F7F6F7"/>
	<stop  offset="1" style="stop-color:#FFFFFF"/>
</linearGradient>
<circle class="st20" cx="279.9" cy="278.8" r="14"/>
<linearGradient id="SVGID_11_" gradientUnits="userSpaceOnUse" x1="216.1894" y1="466.0048" x2="226.8791" y2="466.0048">
	<stop  offset="0" style="stop-color:#AFA7AA"/>
	<stop  offset="0.2727" style="stop-color:#B2AAAD"/>
	<stop  offset="0.4717" style="stop-color:#BAB3B6"/>
	<stop  offset="0.6474" style="stop-color:#C9C3C5"/>
	<stop  offset="0.8096" style="stop-color:#DDDADB"/>
	<stop  offset="0.9611" style="stop-color:#F7F6F7"/>
	<stop  offset="1" style="stop-color:#FFFFFF"/>
</linearGradient>
<circle class="st21" cx="221.5" cy="466" r="5.3"/>
<rect x="5" y="1316.1" class="st22" width="1254.7" height="169.1"/>
<g class="st23">
	
		<image style="overflow:visible;" width="222" height="253" xlink:href="EC2A4834C169CE3A.png"  transform="matrix(1 0 0 1 97 906.54)">
	</image>
</g>
<g class="st23">
	
		<image style="overflow:visible;" width="222" height="253" xlink:href="EC2A4834C169CE3B.png"  transform="matrix(1 0 0 1 261 906.54)">
	</image>
</g>
<g class="st23">
	
		<image style="overflow:visible;" width="223" height="253" xlink:href="EC2A4834C169CE28.png"  transform="matrix(1 0 0 1 429 906.54)">
	</image>
</g>
<g class="st23">
	
		<image style="overflow:visible;" width="223" height="253" xlink:href="EC2A4834C169CE29.png"  transform="matrix(1 0 0 1 598 906.54)">
	</image>
</g>
<g class="st23">
	
		<image style="overflow:visible;" width="223" height="253" xlink:href="EC2A4834C169CE2A.png"  transform="matrix(1 0 0 1 776 906.54)">
	</image>
</g>
<g class="st23">
	
		<image style="overflow:visible;" width="223" height="253" xlink:href="EC2A4834C169CE2F.png"  transform="matrix(1 0 0 1 954 906.54)">
	</image>
</g>
</svg>
