<svg id="Layer_1" data-name="Layer 1" xmlns="http://www.w3.org/2000/svg" viewBox="0 0 390.39 295.58">
  <defs>
    <style>
      .cls-1 {
        fill: #6f716c;
      }

      .cls-2 {
        fill: #010101;
      }

      .cls-3 {
        fill: #878a83;
      }

      .cls-4 {
        fill: #87837b;
      }

      .cls-5 {
        fill: #53534e;
      }

      .cls-6 {
        fill: #6a6d68;
      }

      .cls-7 {
        fill: #979990;
      }

      .cls-8 {
        fill: #444541;
      }

      .cls-9 {
        fill: #64695f;
      }

      .cls-10 {
        fill: #54574e;
      }

      .cls-11 {
        fill: #a7a9a4;
      }

      .cls-12 {
        fill: #878d86;
      }

      .cls-13 {
        fill: #c2c8bc;
      }

      .cls-14 {
        fill: #b0b3aa;
      }

      .cls-15 {
        fill: #4e504b;
      }

      .cls-16 {
        fill: #8b908a;
      }
    </style>
  </defs>
  <title>gun</title>
  <g>
    <path class="cls-1" d="M171.27,104.28l-15,.08-4.19-.08H100.85l-9.12,51H61.66l-6.78,16.76c-2.75,9.55-6.16,10.23-5.05,12.08s-1.48,3.33-1.48,3.33l-.74,16.76,4.68,2.83v9.24l6.54,6.17h6.65a1.76,1.76,0,0,1,1.23-1.61l33.77,27.24-.12,12.7,5.67,4.68c12.82,9.37,8.87,29.58,8.87,29.58l19.23,30.56-4.93,70.5H418.57V367.69l9.25,6.74V310.18s-75.3-33-75-33.69-1.47-15.28-1.47-15.28L343,236.89l-44-14.73v-5.81c-3.29.65-4.6-4.93-4.6-4.93s-.5-87.67,0-88.41a14.39,14.39,0,0,1,2.95-2.18s7.28-8.14,7-9.16c-.37-1.51-5.55-4.44-5.55-4.44H286m-148.87,47H108.33l6.74-38.94,29.74,3.61Zm26.78,31.39-12.32-4.11v-11l11.17-48.31,1.15,1Z" transform="translate(-40.1 -102.96)"/>
    <g>
      <path class="cls-2" d="M171.27,104.53l-8.81.22c-2.93,0-5.87.19-8.8.14-5.87,0-11.74.16-17.61.23l-17.6.26-17.6.2,1.29-1.07L93.5,155.62l-.25,1.47H91.73l-30.07.19,1.85-1.24-6.69,16.79.07-.2A44.42,44.42,0,0,1,55.41,177a28.77,28.77,0,0,1-2.1,4.19c-.4.67-.86,1.33-1.22,1.89a6.08,6.08,0,0,0-.37.61s0,0,0-.17a1.41,1.41,0,0,1,0-.21c0-.07-.06-.16,0-.17a.2.2,0,0,0,0-.08l.23.47a3.83,3.83,0,0,1,.32,1.15,3.87,3.87,0,0,1-.44,2.27,5.69,5.69,0,0,1-1.08,1.42,7,7,0,0,1-1.28,1l1.08-1.77-.7,16.76-1-2,4.69,2.83,1.06.63v1.25l0,9.24-.7-1.62,6.55,6.15-1.54-.61h6.65l-2.24,2.25a4.12,4.12,0,0,1,.21-1.27,3.81,3.81,0,0,1,.65-1.15,4.09,4.09,0,0,1,.88-.8,3.33,3.33,0,0,1,.48-.28,4.09,4.09,0,0,1,.61-.25l1.11-.36.94.76L85,232.76l16.81,13.7.8.66v1l-.21,12.7-.73-1.58,3.77,3.18,1.89,1.6,1,.82c.34.29.67.61,1,.92a24.06,24.06,0,0,1,5.75,9,35,35,0,0,1,2,10.25,45,45,0,0,1-.6,10.34l-.22-1.18L135.2,325l.22.36,0,.4c-.93,11.74-1.92,23.48-2.79,35.22s-1.79,23.49-2.62,35.24l-.78-.84,18.08,0,18.09-.05,36.17-.11,72.35-.59,36.17-.34,36.17-.23,72.34-.33-2.41,2.41-.1-28.43,0-4.93,4,2.9,9.27,6.7-4.06,2.07-.1-32.13V310.18l1.59,2.44-22.32-9.84-22.28-10c-7.42-3.33-14.84-6.67-22.24-10.09-1.86-.86-3.7-1.72-5.56-2.62l-1.41-.7-.74-.39-.44-.25a5.17,5.17,0,0,1-.44-.31,3.4,3.4,0,0,1-.45-.47,2.65,2.65,0,0,1-.24-2.59l0,0a1.33,1.33,0,0,0-.11.24,1.1,1.1,0,0,0-.06.26c0,.06,0,.24,0,.17v-.4l0-.69-.11-1.47c-.34-4-.8-8-1.26-12.05l.12.48-8.23-24.37,1.39,1.38-43.94-15-1.32-.45v-1.37l0-5.81,2.26,1.84a4.53,4.53,0,0,1-3.07-.51,5.93,5.93,0,0,1-1.92-1.82,10.89,10.89,0,0,1-1.07-2,13.82,13.82,0,0,1-.68-2.06l-.05-.2v-.2l.29-46.06.23-23,.2-11.52.16-5.77.07-1.46v-.19c0-.08,0-.08,0-.25a1.47,1.47,0,0,1,.26-.7,4,4,0,0,1,.64-.62,21.78,21.78,0,0,1,2.52-1.65l-.19.15c2.09-2.3,4.19-4.65,6.05-7.1.23-.31.45-.62.64-.93a2.16,2.16,0,0,0,.3-.56,2.59,2.59,0,0,0-.55-.74,10.12,10.12,0,0,0-.83-.74,33.59,33.59,0,0,0-3.8-2.61l.23.06L286,107.48V107l12.82-.22h.12l.12.06a34.25,34.25,0,0,1,4,2.58c.32.25.63.51.94.8a3.38,3.38,0,0,1,.84,1.14c0,.07.05.12.08.21a1.19,1.19,0,0,1,0,.38,3.37,3.37,0,0,1-.13.41c-.1.22-.21.4-.31.59-.21.36-.44.69-.67,1-1.85,2.6-3.88,5-5.93,7.38l-.06.08-.12.07a19.67,19.67,0,0,0-2.26,1.57,2.71,2.71,0,0,0-.38.37l0,0h.05s0,0,.05,0v.28l0,1.41v5.74l.13,11.51.28,23,.67,46-.05-.41a10,10,0,0,0,.51,1.44,6.93,6.93,0,0,0,.72,1.27,2.16,2.16,0,0,0,.74.71.8.8,0,0,0,.5.08l2.24-.17v2l0,5.81-1.31-1.82,44.13,14.45,1,.33.37,1,8.54,24.27.07.23,0,.25c.51,4.06,1,8.09,1.43,12.2l.13,1.57,0,.83v.75s0,.23,0,.35a3.58,3.58,0,0,1-.09.45,4.34,4.34,0,0,1-.14.43l0,.09a2.57,2.57,0,0,0-.23-2.55,2.09,2.09,0,0,0-.38-.4l-.12-.09.22.12.61.31,1.33.64,5.5,2.55q11.07,5,22.24,9.93l44.65,19.64,1.6.7v1.75l0,32.12-.1,32.13,0,5-4-3-9.22-6.77,4-2-.1,28.43v2.42h-2.41l-72.34-.33L310.06,398l-36.17-.35L201.54,397l-36.17-.11-18.09-.06-18.08,0h-.84l.06-.84q1.22-17.62,2.31-35.26c.77-11.75,1.43-23.51,2.14-35.27l.19.76-19.53-30.37-.33-.5.11-.67a42.37,42.37,0,0,0,.35-9.5,31.74,31.74,0,0,0-2-9.18,20.27,20.27,0,0,0-5-7.53l-.84-.75-.93-.71-2-1.57-3.9-3.16-.73-.59v-1l0-12.7.78,1.66-17-13.53-16.9-13.6,2,.4.11,0h0s0,0,.09-.08a.67.67,0,0,0,.15-.41l-2.24,2.24H57.93l-.65-.62-6.51-6.17-.71-.67v-1l0-9.24L51.15,209l-4.67-2.85-1.12-.68.06-1.29.78-16.76.06-1.19,1-.58a4.08,4.08,0,0,0,.45-.34A1.22,1.22,0,0,0,48,185c0-.05,0,0,0,.17a.23.23,0,0,0,0,.1s0,0,0,0q-.15-.28-.27-.57a3.26,3.26,0,0,1-.22-1.44,3.75,3.75,0,0,1,.3-1.22,8.5,8.5,0,0,1,.73-1.28c.43-.65.8-1.18,1.15-1.76a25.06,25.06,0,0,0,1.82-3.58c.54-1.25,1-2.57,1.38-3.89l0-.13,0-.07,6.87-16.73.51-1.25h1.33l30.07.19L90,155l9.61-50.93.2-1.09h1.08l17.61.2,17.61.26c5.86.1,11.73.15,17.6.29s11.73.2,17.59.31Z" transform="translate(-40.1 -102.96)"/>
      <path class="cls-2" d="M137.24,154.43c-2.13.34-4.42.6-6.75.86s-4.73.48-7.18.65-4.94.31-7.44.4-5,.15-7.54.14h-2.69l.47-2.62c.59-3.24,1.38-6.45,2.24-9.64s1.76-6.38,2.48-9.6,1.29-6.46,1.73-9.73.77-6.55,1.07-9.84l.12-1.26,1.49.06c2.5.11,5,.18,7.51.35s5,.36,7.47.58l7.46.68c2.49.23,5,.47,7.45.79l2.92.36-.62,2.87c-.66,3.09-1.44,6.15-2.22,9.19s-1.63,6.05-2.52,9-1.76,5.84-2.67,8.65S138.19,151.83,137.24,154.43Zm-.31-.39c.34-3.3.7-6.46,1.09-9.53s.76-6.09,1.18-9,.89-5.82,1.35-8.69,1-5.67,1.64-8.47l2.3,3.24c-2.48-.29-5-.65-7.43-1l-7.4-1.14c-2.47-.38-4.94-.77-7.4-1.22s-4.91-1-7.37-1.46l1.61-1.2c-.82,3.21-1.65,6.4-2.3,9.63s-1.23,6.48-1.63,9.75-.62,6.58-.89,9.87-.59,6.59-1.13,9.83L108.33,152c2.28,0,4.55.05,6.84.14s4.59.22,6.94.4,4.74.42,7.19.65S134.27,153.69,136.93,154Z" transform="translate(-40.1 -102.96)"/>
      <path class="cls-2" d="M164,185.82l-6.14-1.14c-1.11-.21-2.24-.47-3.39-.72s-2.32-.54-3.48-.84l-1.07-.28-.09-1.33c-.26-3.67-.42-7.34-.5-11v-.2l.06-.3a119.4,119.4,0,0,1,3-12c1.23-4,2.62-7.87,3.79-11.85a122,122,0,0,0,2.83-12.06c.77-4.07,1.33-8.18,2-12.28l.41-2.7,2.43,1.77,1.23.9.58.42.07,1c.37,5.34.45,10.74.58,16.17s.11,10.91-.12,16.25-.58,10.57-.93,15.65S164.49,181.24,164,185.82Zm-.29-.41-1.26-16.64c-.35-5.32-.71-10.5-.92-15.57s-.24-10-.13-15,.21-10,.59-15.06l.65,1.42-1.08-1.08,2.84-.93c-1.23,4-2.53,7.9-3.63,11.89A121.33,121.33,0,0,0,158,146.55c-.7,4.08-1.16,8.22-1.8,12.31A116.15,116.15,0,0,1,153.68,171l.06-.49q-.12,5.5-.49,11l-1.17-1.61c.9.38,1.79.77,2.69,1.21s1.82.86,2.77,1.34l3,1.46C161.53,184.41,162.6,184.91,163.73,185.41Z" transform="translate(-40.1 -102.96)"/>
    </g>
  </g>
  <path class="cls-2" d="M50.49,184.42,40.1,170.87s1.82-3.4,3-5.3c.28-.46,14.79,2.08,14.79,2.08l-1.31,3.56Z" transform="translate(-40.1 -102.96)"/>
  <polygon class="cls-3" points="116.54 96.13 170.44 117.04 170.44 164 49.5 96.13 51.64 52.34 60.47 2.89 170.44 9.2 170.44 20.05 65.44 10.68 57.72 52.26 55.95 68.73 55.33 83.44 116.58 112.6 116.54 96.13"/>
  <polygon class="cls-4" points="55.92 69.33 111.61 67.87 111.61 80.19 109.97 80.19 105.37 77.89 62.32 77.89 57.63 82.82 55.35 83.06 55.92 69.33"/>
  <polygon class="cls-5" points="62.32 77.89 116.56 101.14 116.54 96.13 122.62 96.09 122.62 94.16 124.35 94.04 124.35 83.06 111.61 78.1 111.61 80.19 109.97 80.19 105.37 77.89 62.32 77.89"/>
  <polygon class="cls-6" points="95.11 86.91 116.54 96.13 122.62 96.09 122.62 94.16 124.35 94.04 124.35 86.11 92.62 85.8 95.11 86.91"/>
  <polygon class="cls-7" points="170.44 128.83 185.56 117.04 244.31 114.86 260.03 120.01 260.03 113.06 254.25 108.45 254.15 21.65 264.23 20.66 264.23 8.71 170.44 9.2 170.44 20.05 170.44 128.83"/>
  <polygon class="cls-8" points="116.54 96.13 122.62 96.09 178.45 116.73 170.44 117.04 116.54 96.13"/>
  <polyline class="cls-9" points="178.29 116.67 178.06 53.16 177.96 24.86 175.25 23.01 124.35 18.82 123.81 42.81 122.62 96.09"/>
  <path class="cls-10" d="M190.55,151.36c-.41,0-26.64-5.59-26.64-5.59l.54-24,50.9,4.19,2.71,1.85.1,29Z" transform="translate(-40.1 -102.96)"/>
  <polygon class="cls-11" points="21.56 52.34 51.05 64.41 49.5 96.13 170.44 164 203.97 158.74 194.43 135.73 218.1 129.49 234.2 135.73 200.35 211.32 8.25 84.5 21.56 52.34"/>
  <polygon class="cls-12" points="113.01 198.01 113.01 250.51 126.57 250.51 141.36 250.51 141.36 246.82 152.45 246.57 152.45 243.12 158.37 236.96 141.36 220.94 135.69 220.69 133.47 219.21 131.25 219.7 119.91 209.35 119.91 203.19 113.01 198.01"/>
  <path class="cls-13" d="M167.32,355.69v40.43h39.44c-.16,0,0-19.06,0-19.06l-25.31-21.37Z" transform="translate(-40.1 -102.96)"/>
  <polygon class="cls-14" points="200.35 211.04 199.03 268.56 214.81 284.66 224.34 286.63 224.34 170.95 234.86 155.5 243.4 134.8 234.2 135.73 218.84 169.75 200.35 211.04"/>
  <path class="cls-14" d="M289.74,383.63l12.16,12.49h28.27V361s1-11.5-11.83-20.05-28.6-20-28.6-20Z" transform="translate(-40.1 -102.96)"/>
  <polygon class="cls-14" points="312.75 280.01 349.23 250.51 374.86 262.92 374.86 293.16 312.75 293.16 312.75 280.01"/>
  <polygon class="cls-15" points="185.56 117.04 234.2 135.73 303.05 134.09 244.31 114.86 185.56 117.04"/>
  <path class="cls-2" d="M62.07,169c.51-1.12,1.36-2.93,1.85-4a.87.87,0,0,0-.43-1.15l-1.83-.82a.85.85,0,0,0-1.15.46L59,167.26a.85.85,0,0,0,.29,1l1.45,1.09A.86.86,0,0,0,62.07,169Z" transform="translate(-40.1 -102.96)"/>
  <path class="cls-2" d="M66.47,171.17c.49-1.1,1.28-2.77,1.76-3.78a1,1,0,0,0-.47-1.28l-1.65-.74a1,1,0,0,0-1.29.51l-1.41,3.57a1,1,0,0,0,.32,1.12l1.3,1A1,1,0,0,0,66.47,171.17Z" transform="translate(-40.1 -102.96)"/>
  <path class="cls-2" d="M70.42,173.38c.51-1.17,1.56-3.4,2.06-4.45a.62.62,0,0,0-.31-.83l-2.27-1a.62.62,0,0,0-.84.34l-1.63,4.12a.61.61,0,0,0,.2.73l1.84,1.37A.63.63,0,0,0,70.42,173.38Z" transform="translate(-40.1 -102.96)"/>
  <path class="cls-2" d="M75.11,175.45c.51-1.16,1.54-3.35,2-4.4a.64.64,0,0,0-.32-.86l-2.22-1a.65.65,0,0,0-.88.35l-1.61,4.08a.65.65,0,0,0,.21.76l1.8,1.34A.66.66,0,0,0,75.11,175.45Z" transform="translate(-40.1 -102.96)"/>
  <path class="cls-2" d="M79.47,177.47c.51-1.17,1.62-3.51,2.11-4.56a.56.56,0,0,0-.28-.76l-2.37-1.07a.56.56,0,0,0-.77.31l-1.67,4.2a.58.58,0,0,0,.19.68l1.92,1.42A.58.58,0,0,0,79.47,177.47Z" transform="translate(-40.1 -102.96)"/>
  <path class="cls-2" d="M84,179.39c.51-1.15,1.46-3.16,2-4.21a.75.75,0,0,0-.37-1l-2-.93a.75.75,0,0,0-1,.41L81,177.59a.75.75,0,0,0,.25.87l1.65,1.22A.73.73,0,0,0,84,179.39Z" transform="translate(-40.1 -102.96)"/>
  <path class="cls-16" d="M303.88,298.34l22.34,52.42s3.89,36.16,3.95,45.36h22.67V332.69l75,40.09V339.26l-96.17-44-22.52-3s-4.43,1-5.25,5.26" transform="translate(-40.1 -102.96)"/>
</svg>
