<svg id="Layer_1" data-name="Layer 1" xmlns="http://www.w3.org/2000/svg" viewBox="0 0 422.52 415.87">
  <defs>
    <style>
      .cls-1 {
        fill: #ed2224;
      }

      .cls-2 {
        fill: #010101;
      }
    </style>
  </defs>
  <title>splat</title>
  <g>
    <path class="cls-1" d="M313.41,195.08s-7.21,12.09,0,12.26,3.77,0,3.77,0,3.69,6.26,15.27,3.52c0,0,14.49,8,18.61,6.17S358,213.77,359,209,376,201.51,376,201.51s3.86.17,3.52-.94-1-2.83.6-1.72,2.31,4.12,2.31,4.12,4.55,3,14.67-8.75c0,0,3.17-7.38,10.38-8S415,180.5,415,180.5s4.29-6.69,8.92-3.95-5.92,8.32-7.63,7.89-6.44,7.21-6.09,8.06-6.18,7-12.44,7.89-15.87,16.13-15.87,22.48a7,7,0,0,1-6,7.12s-6.69,18.26,7.63,19.89S388.37,264,388.37,264s-4.63,14,7,8.66c0,0,12.83-3.22,16.86-4.12S423.79,264,423.79,264l4.51-.65s3.08-2.44,6.34-2.27-3.38,2.75-4.29,2.75-9.56,4.28-11,4.2-13,5.06-13,5.06-11.11,1.89-14.16,6.77c0,0-3.86,2.19-4.54,1.46s-4.51,5.79-1.25,10,1.63,8,1.63,8a27.86,27.86,0,0,0,11.9,16.15s3.67,3.67,3.93,5.47,5.47,1,5.47,1a9.82,9.82,0,0,0,8,3.41s6.37,3.53,11.32,3c0,0,4.06,4.41,15.47,6.73,0,0,1.54.47,1.92,3.26,0,0-5.53-1-7.84-3.09s-13.3-.94-13.3-.94-3.91-5.28-8-4.59a12.48,12.48,0,0,0-6.22-1.33s-4.28-4-8.23-1.85-11.58,14.11-11.58,14.11-5.06,10.64-6.56,11.41S385,354,385,354s5.62.51,2.28,3.69c0,0-3.39,1.15-3.56-2.53,0,0-1.85-.95-2.49,1.93,0,0-7.59,1-10.33,7.93,0,0,.34,2.23,1.24,2.36s-1.67,3.51-3.39,1.63-5.23.38-5.53,1a2.87,2.87,0,0,0,.13,1.76s-2.19-.39-2.66.17-2.23,9.05-9.61,13.25-12,7.2-13.21,9.48c0,0-.47,1.33.43,1.75s-.86,2.36-1.2.69-.9-1.8-1.24-1.71-11.8.77-15.91,4.41c0,0-1.12,2.23-.35,2.88s-3.51,0-3.51,0-3.39,2-3.26,3.6a1.86,1.86,0,0,0,1.46,1.8s.94,2.44-1.63,1.07c0,0-.56-1.24-1.55-.6s-1.67,2.87-1.67,2.87-1.07,3.44-2.53,3.86.86,6.31.86,6.31,3.9,2.74,2.06,6.95-3-6.18-3-6.18-1-7.38-1.59-7.55-3.56-4.2-5.7-4-13.64-2.66-17.42-6.43-12-4.16-12.95-3.6-3.26,4.33-10.5,4.28-17.93,2.36-23-1.07-13.72-6.56-14.88-6.09-6.22-1.33-9.78,5.28c0,0,1.76,5.83-1.84,8.06s-.82,4-6.09,2.27-7.25,5.19-7.25,5.19-4.54,7.42-6.3,4.89-3.48-3.94-3.13-6.39,5.53-11.62,6.6-12.35,3.13-7.93,3-8.66a3.21,3.21,0,0,0-1.16-1.42s0-1.33.69-1.8-4.63-4-5.36-3.86-4.46-6-7.76-9-15.57-3.43-21.62,0-6.39,1.59-9.91,3.48-16.33,6.77-19.42,11-6.44,5.79-6.65,5.75-4.76,5.83-9.35,6.65c0,0-3.6,6.56-10.68,7,0,0-6,7.76-11.36,8.84s-10.08,3-10.77,3.77-6.21,6.3-6.21,6.3-9,6-10.68,5.79,8.23-10.55,8.92-11.23,5.57-2.15,6.6-3.09,3-5.32,2.32-7.29,3.17-7.25,6.69-8.36,11,1.2,16.17-2,15.35-9.64,20.67-15.39,7.8-13.55,9.47-17.71,6.05-9,6.35-14.54-4.55-12-4.55-12-5.06-12.1-4.63-13.55-12-13.34-13.42-13.17-5.23-3.35-8.83-1.24-7-2.58-7.51-6.18-.77-9.95-1.93-10.33-7-7-8.58-6.87-4.28-4-4.28-4-5.54-.52-6.05-.91-12.44-.3-12.44-.3a18,18,0,0,1-2.66,2.45c-1,.6.26,4.07,1.29,4.54s4.24,4.72,1.76,6.52-3.73,7.17-11.62,2.4a16.27,16.27,0,0,1-.78-6.6c.35-3.64-4.71-7.2-4.71-7.2s-6.35-1.21-8.37.47-5.66-.77-5.66-.77-6.43-.52-7.33-.13A10,10,0,0,1,25.94,291c-2-1.41,4.72-1.89,4.72-1.89s3.47,1.46,5,1.33,7.16-.64,7.76-1.54,9.3.13,9.3.13a7,7,0,0,0,4.16-3.13c1.25-2.4,8.75-1.67,10.47-.39s25.51.39,25.51.39,5.49,2.53,9.53,2.44,5.06-8.27,5.06-8.27,4.46-10.34,4-11.75,10.08-8,12.13-7.51,9.14-9.48,8.58-15.35c0,0-6.52-4.21-7.55-3.69s-1.71-1.2-.73-1.63,2.11-1.46,2.58-.21a3.32,3.32,0,0,0,1.93,2.23c.68.12,7.2,1,7.12-.91s2.4-7.54,2.4-7.54,1.84-1.85.73-3.56-9.48-6.48-10.12-6.44-4.72-1.54-5.45-1.15-4.38-4.29-4.38-4.29-8.92-6.86-9.64-7-5.49-4.16-7.17-4.72-8.1-7.38-8.1-7.38-5.62-6.47-7.46-5.7-5.41-1.67-6.44-4.29.69-3.43.26-3.86-1.5-2.1-2.92-2.27S71.06,179,71.06,179s-4.68-7.41-6.73-7.41-.13-1.85-.13-1.85a3.26,3.26,0,0,0-2.7-2.1c-2-.13-5.79-2.06-4-3.56s1.37-4.2,3.3-2.4,3.6,3.52,3,4.37,1.59,3.56,2.36,3.65,3.09,2.79,3.09,3.64,3.09,2.36,4,2.28,1.71,3,1.84,3.08,6.35,6.31,7.16,6.69,3.6-.55,6.26,5.67,10.12,8.06,10.12,8.06a57.13,57.13,0,0,1,6.91,6.52c2.06,2.61,11.62,9.17,12.52,9.69s7.94,4,10.68,4.07,4,1.2,3.73,2.75-.13,1.71,1.93,2.79,3.6,5.57,9.61,1.54,6.43-8.62,6.43-8.62a28.78,28.78,0,0,1,4.42-4c1.76-1.07,4.5-3.39,4.2-5.87s.3-6.31-.51-6.69-7.47-3.44-6.14-13.3c0,0,.52-2,.69-3.13s3.56-4.89,6.56-.6,5.45,3.73,5.45,3.73.38,2-1,2.79.48,5.57.65,5.87-2.06,2,1.54,3.39,4.16,5.75,10.38,1.2S181,191.17,181,191.17s-.21-8.79-1.2-10.76-4.67-7.12-5.7-7.38-5-8.4-4.8-8.7-1.59-1.63-1.85-2.49-7.85-3.09-8.66-9.69-2.36-10.68-3.13-11.37-2.4-5.49-4.16-5.61c0,0-1.5-2.15-1.46-3.56s-3.43-7.34-3.64-7.34-10.73-10.93-10.77-11.66-4.17-7.11-8.88-2.4c-.21.21-1.93,10-12.13,11.66s-16.38-2.14-21.36-9S91,97,91,97,97.52,83.7,108.2,84.3l4.67,0s3.69-1.91,3.82-3.19a7.53,7.53,0,0,0-.56-3s-3.6-19.64-8.7-28.26c0,0-3.56-4.55-6.09-5.88s-2.28-6.39-2.28-6.39S91,23.79,100.14,24.91,114.2,49.09,114.2,49.09s5.28,8.67,7.25,9.78S135.94,76.33,141.09,88c0,0,4-.36,1,1.36S147.63,102,147.63,102s4.2,13.53,1.05,19.84a2.67,2.67,0,0,0,1.93,3.47,3.07,3.07,0,0,1-.83,3.15,4.45,4.45,0,0,0,2,3.22c1.74.9,3.41,5.27,3.41,5.27s2.57,1.42,2.51,3.54,4.24.26,5.34,6.11,5.46-3.86,9.32,8.94,8.88,17.89,11.13,19.88,9,2.25,7.53-4.63-5.08-8.43-5.08-8.43a22.78,22.78,0,0,1-3-6.62c-.9-3.6-6.81-11.13-7.26-11.39s-3.16.71-3.35-1.22a58,58,0,0,1-.19-7.08c.13-.51.38-.77,1.22.84s3.6,4.25,3.79,6.11,5.79,8.94,5.79,8.94a37.44,37.44,0,0,1,2.13,3.6c.19.65,8,6.63,9.52,11,0,0,5.21,1.1,2.83-4a33.19,33.19,0,0,1-.84-5.09s-4.57,1.68-6.56-4.5c0,0-5.72,1.48-4.95-4.95,0,0,2.31-6.5,6.56,2.12,0,0,2.31-.19,2.83,1.09s.84-2.25,1.22-1.15a20,20,0,0,1,1.42,5.08,91.57,91.57,0,0,0,2.12,9.71c.13.32-.45,3,5.08,5.28s5.08-.45,7.46,4.37,2.45,6.24,2.13,8.11,4.11,7,8.75,4.89,10.22-7.53,17.56-3.35,4.18,6.76,9.52,8.23,7.36-2.18,7.36-2.18,2.35-1.42,4.8,1.09,10.16-3.41,12.73-7.59,3.35-8.17,5-9.13c0,0,.9-16.67,7.46-20.91a3.06,3.06,0,0,0,.64-2.45c-.19-1.6,5.79-6.24,5.79-6.24a7.81,7.81,0,0,1-.32-2.18c.13-.52,2.06-.39,1.61-1.67s-.84-2.26.13-2.51-.45-9.4.77-10.68,4.11-8.11,4.11-8.11a7.13,7.13,0,0,0,.91-5.53c-.78-3.22.32-5.27,3.21-7.72a28.47,28.47,0,0,0,.39-3c0-.77-3.48-2.83-.2-5.72s2.26-.26,2.26-2.77,2,2.12-.13,8.56a39.75,39.75,0,0,0-2.19,10.8,36.94,36.94,0,0,0-1.67,5.92c-.13,1.67,1.09,7.21.45,8.69s-5.08,10.35-1.61,16,8.68,8.43,8.75,14.22,5.53,8.36,2.7,15.95.9,13.26,3.86,9.52,4.63-6.94,4.76-7.72.64-4.11.64-4.11-3.73.38-1.67-2.19c0,0,2.06.77,3.09-.51s.64-4.12,1.16-4.64,4.37-5.66,5.14-7.59.65-6.56,4.25-7.33.9,6.82.9,6.82-2.06,6.43-.9,8.36-5.15,16.6-10.42,17.76c0,0-2.83-3.35-4.63.51S313.41,195.08,313.41,195.08Z" transform="translate(-24.89 -23.29)"/>
    <path class="cls-2" d="M313.54,195.15a32.19,32.19,0,0,0-2.18,4.55,11.91,11.91,0,0,0-1,4.85,3.59,3.59,0,0,0,.29,1.17,2.41,2.41,0,0,0,.74.9,4.12,4.12,0,0,0,2.33.56l2.53,0,1.27,0h.37c.08-.08-.22.13,0,.29l0,0h0l-.14,0-.63,0,.16-.26a8.51,8.51,0,0,0,3.05,2.62,12.45,12.45,0,0,0,3.86,1.28,18.13,18.13,0,0,0,4.1.16c.68-.06,1.36-.15,2-.23l2-.41h.08l.06,0a83.77,83.77,0,0,0,11.59,5.24,29.43,29.43,0,0,0,3.05.87,9.25,9.25,0,0,0,3.09.23,3.38,3.38,0,0,0,.71-.19l.73-.33c.48-.21,1-.44,1.44-.67a13.94,13.94,0,0,0,2.65-1.67,7.62,7.62,0,0,0,2-2.38,11.48,11.48,0,0,0,1-3,4.76,4.76,0,0,1,2.05-2.56,16.35,16.35,0,0,1,2.84-1.55A57.5,57.5,0,0,1,376,201.27h0a9.31,9.31,0,0,0,2.86-.25c.22-.06.4-.2.41-.28a2.3,2.3,0,0,0-.16-.57c-.07-.24-.15-.48-.21-.74a1.53,1.53,0,0,1,0-.89.48.48,0,0,1,.28-.26.6.6,0,0,1,.32,0,1.68,1.68,0,0,1,.41.17,3.66,3.66,0,0,1,.66.45,5.2,5.2,0,0,1,1,1.21,10.37,10.37,0,0,1,1.14,2.83l-.11-.16a3.78,3.78,0,0,0,2,.26,8.17,8.17,0,0,0,2.09-.55,17.9,17.9,0,0,0,3.8-2.22,34.71,34.71,0,0,0,3.35-2.94c1.07-1,2.05-2.15,3.05-3.26l-.05.07a16.21,16.21,0,0,1,3.58-4.9,11.86,11.86,0,0,1,5.29-3c1-.25,2-.33,3-.47a9.77,9.77,0,0,0,2.75-.91,6.45,6.45,0,0,0,2.16-1.82,5.39,5.39,0,0,0,1.05-2.58v-.09l0-.06a12.84,12.84,0,0,1,4.06-3.94,5.94,5.94,0,0,1,2.78-.8,4.91,4.91,0,0,1,2.79.88,2.39,2.39,0,0,1,.95,1.24,2.22,2.22,0,0,1-.18,1.57,6.93,6.93,0,0,1-1.87,2.21,18.82,18.82,0,0,1-4.86,2.84,9,9,0,0,1-1.39.43,2.28,2.28,0,0,1-.83,0,.68.68,0,0,0-.42.12,7.5,7.5,0,0,0-1.89,1.81,24.81,24.81,0,0,0-2.93,4.59,5.32,5.32,0,0,0-.26.61,2.14,2.14,0,0,0-.13.47.72.72,0,0,1,0,.55,1.84,1.84,0,0,1-.19.37,5.39,5.39,0,0,1-.45.59,17.3,17.3,0,0,1-2,2,27.2,27.2,0,0,1-4.67,3.13,17.09,17.09,0,0,1-5.36,1.82,9.82,9.82,0,0,0-4.54,2.6,38.39,38.39,0,0,0-6.76,8.58,43,43,0,0,0-2.5,4.87,19.35,19.35,0,0,0-1.54,5.16,19.54,19.54,0,0,1-.27,2.81,6.94,6.94,0,0,1-1.21,2.72,8,8,0,0,1-5,3l.44-.36A25.94,25.94,0,0,0,375,241a10.3,10.3,0,0,0,1.84,4.91,8.29,8.29,0,0,0,4.25,2.9c.42.13.86.22,1.29.33l1.34.2a16.7,16.7,0,0,1,2.85.56,9.54,9.54,0,0,1,2.72,1.2,6,6,0,0,1,2.11,2.26,6.18,6.18,0,0,1,.68,3,10.66,10.66,0,0,1-.51,2.94,19.08,19.08,0,0,1-2.65,5.18l.11-.2a20,20,0,0,0-.8,3.91,7.22,7.22,0,0,0,.41,3.69,2.46,2.46,0,0,0,2.76,1.31A11.57,11.57,0,0,0,395.1,272l.06,0h.06l14.47-3.58c1.2-.31,2.43-.58,3.56-.91s2.3-.77,3.44-1.22c2.27-.91,4.53-1.92,6.74-3l.12-.05.13,0,4.5-.66-.41.17a12.86,12.86,0,0,1,4.78-2.27,8.73,8.73,0,0,1,1.36-.19,5.24,5.24,0,0,1,1.49.09,1.39,1.39,0,0,1,.66.33.82.82,0,0,1,.21.28,1,1,0,0,1,.13.43,1.83,1.83,0,0,1,0,.4l-.11.22a2.31,2.31,0,0,1-.71.71,9,9,0,0,1-1.2.66,21.21,21.21,0,0,1-2.38,1,8.76,8.76,0,0,1-1.36.37s-.27,0-.24,0v0s-.14,0-.2.06l-.53.2c-1.48.59-3,1.28-4.51,1.93a49.12,49.12,0,0,1-4.71,1.85l-.36.09-.17,0-.25,0a2.8,2.8,0,0,0-.5,0c-.34.08-.71.19-1.09.32-.75.25-1.51.54-2.27.83-3,1.2-6.07,2.51-9.06,3.84l-.11.05-.12,0c-1.25.23-2.55.55-3.8.91a34.69,34.69,0,0,0-3.68,1.27,19.46,19.46,0,0,0-3.4,1.75,8.57,8.57,0,0,0-2.57,2.43l-.15.23-.22.12a22.56,22.56,0,0,1-2.93,1.39c-.27.09-.55.18-.85.26a2.84,2.84,0,0,1-1.21.05l-.22-.05-.28-.14a1.89,1.89,0,0,1-.27-.2l0,0,0,0a.36.36,0,0,0,.09.08.81.81,0,0,0,.21.1.75.75,0,0,0,.39,0,.53.53,0,0,0,.17,0s.07-.05.06,0a2.13,2.13,0,0,0-.3.35,8.86,8.86,0,0,0-1.39,5.17,5.65,5.65,0,0,0,.73,2.45,4.5,4.5,0,0,0,.36.53l.48.69a10.15,10.15,0,0,1,.84,1.47,9.7,9.7,0,0,1,.91,3.32,9.31,9.31,0,0,1,0,1.75,6.93,6.93,0,0,1-.44,1.8l.07-.66a22.52,22.52,0,0,0,1.72,4.52,27.33,27.33,0,0,0,5.87,7.85,29.27,29.27,0,0,0,3.87,3l.11.08.07.07c.79.8,1.51,1.6,2.21,2.46.35.44.69.88,1,1.37a7.17,7.17,0,0,1,.88,1.66,4.07,4.07,0,0,1,.15.58c0,.07,0-.06,0-.06s0,0,.12,0a3.43,3.43,0,0,0,1.15.24,15.14,15.14,0,0,0,2.92-.13l.64-.09.44.52a8.58,8.58,0,0,0,1.42,1.3,9.18,9.18,0,0,0,1.72,1,7.89,7.89,0,0,0,1.89.56,8.54,8.54,0,0,0,2,.11h.35l.29.15a26,26,0,0,0,2.56,1.19,27.63,27.63,0,0,0,2.68.95,14.21,14.21,0,0,0,5.38.66l.57-.06.44.44a11,11,0,0,0,1.46,1.18c.54.39,1.12.74,1.7,1.08a30.59,30.59,0,0,0,3.7,1.76,41.13,41.13,0,0,0,3.92,1.34l2,.54,2,.45.08,0h0a2.15,2.15,0,0,1,.46.2l.33.21a4.2,4.2,0,0,1,.54.48,4.6,4.6,0,0,1,.76,1.08,6.93,6.93,0,0,1,.69,2.28l.24,1.69-1.66-.32a28.58,28.58,0,0,1-5.54-1.63,11.27,11.27,0,0,1-2.68-1.55,3.39,3.39,0,0,0-.43-.31,2,2,0,0,0-.41-.19,3.3,3.3,0,0,0-.53-.17,4.68,4.68,0,0,0-.59-.13,27.09,27.09,0,0,0-5.23-.32c-1.79,0-3.62.14-5.39.31l-.69.07-.44-.57a14.77,14.77,0,0,0-2.6-2.58,7.15,7.15,0,0,0-3-1.49,4.81,4.81,0,0,0-.75-.05l-.36,0-.32,0a2.74,2.74,0,0,1-.43-.07l-.12-.05c-.17-.06-.21-.09-.31-.13a12.5,12.5,0,0,0-1.72-.68,9.21,9.21,0,0,0-3.49-.39l-.53,0-.44-.37c-1.46-1.24-3.51-2.27-5.23-2.09a4.2,4.2,0,0,0-2.39,1,20.86,20.86,0,0,0-2.28,2.24c-1.46,1.65-2.82,3.44-4.14,5.26s-2.59,3.7-3.8,5.58l.08-.14c-1.17,2.42-2.36,4.81-3.66,7.18a36,36,0,0,1-2.17,3.55,5.73,5.73,0,0,1-.37.47,3.69,3.69,0,0,1-.53.53l-.41.29s0,0,0,0,.07,0,.08-.08a.71.71,0,0,0,.16-.35.84.84,0,0,0,0-.4c0-.06-.07-.14-.05-.13l.09.09a3.85,3.85,0,0,0,.56.36l-.45-.13a9.73,9.73,0,0,1,1.8.36,5,5,0,0,1,1.91,1,2.55,2.55,0,0,1,.78,1.37,2.5,2.5,0,0,1-.17,1.52c0,.1-.08.21-.13.31l-.15.23-.31.47-.66.71-.19.21-.3.09a5.29,5.29,0,0,1-1.79.24,3.65,3.65,0,0,1-1.93-.63,3.46,3.46,0,0,1-1.28-1.64,6.16,6.16,0,0,1-.25-.88l-.09-.83.73,1.14c.1,0,0,0,0,0H383l-.06.05a1.15,1.15,0,0,0-.22.34,5.9,5.9,0,0,0-.2.63l-.23.89-.91.15a13.41,13.41,0,0,0-5.59,2.38,10.54,10.54,0,0,0-2.17,2.1,10.92,10.92,0,0,0-1.5,2.61l.08-.69a4.32,4.32,0,0,0,.42,1.34c0,.06,0,.05,0,0a.68.68,0,0,0-.21-.1h-.08l.09,0,.19.05a1.53,1.53,0,0,1,.75.56,1.61,1.61,0,0,1,.26,1.24,2.47,2.47,0,0,1-.17.54,3.82,3.82,0,0,1-.4.68,4.45,4.45,0,0,1-2.28,1.64,2.9,2.9,0,0,1-1.79-.05,3.08,3.08,0,0,1-.78-.43,2.12,2.12,0,0,1-.31-.28l-.14-.13,0,0a1,1,0,0,0-.82-.26,3.83,3.83,0,0,0-1.4.38,5.83,5.83,0,0,0-.69.39,3.78,3.78,0,0,0-.48.36c.2-.33.07-.2.11,0a3.18,3.18,0,0,0,.14.61l.8,2.18-2.26-.4a5.56,5.56,0,0,0-1.68-.07l.05,0,0,0,.09-.07.12-.12a.41.41,0,0,0,.05-.09l0,.08-.08.22-.38,1a30.68,30.68,0,0,1-1.92,4.27,23.42,23.42,0,0,1-2.69,3.91,21.3,21.3,0,0,1-3.54,3.23c-1.4.92-2.66,1.59-3.95,2.35s-2.55,1.51-3.79,2.3-2.47,1.6-3.61,2.46a19.47,19.47,0,0,0-1.61,1.35,6.1,6.1,0,0,0-1.18,1.4l.09-.19a1,1,0,0,0-.05.31c0,.08,0,.08,0,0a.45.45,0,0,0-.12-.12h0l.08,0,.14.09a2,2,0,0,1,.27.22,1.91,1.91,0,0,1,.24.32,1.67,1.67,0,0,1,.24.71,2.27,2.27,0,0,1,0,.59,2.55,2.55,0,0,1-.34.78,2.33,2.33,0,0,1-1.3,1,1.73,1.73,0,0,1-1.33-.14,1.91,1.91,0,0,1-.78-.82,1.72,1.72,0,0,1-.14-.36l-.09-.32a2.64,2.64,0,0,0-.07-.3,3.15,3.15,0,0,0-.16-.47c0-.12-.13-.14.06,0a.78.78,0,0,0,.43.09s.07,0,.07,0l-.18,0-.28,0-1.47.15c-1,.11-1.95.23-2.91.38a44.25,44.25,0,0,0-5.67,1.21,14.29,14.29,0,0,0-4.85,2.32l.29-.38a5.77,5.77,0,0,0-.45,1.28,2.91,2.91,0,0,0,0,.3.6.6,0,0,0-.16-.25c-.09-.07.11.1.18.19a2,2,0,0,1,.23.37,1.26,1.26,0,0,1,.1.36,1.54,1.54,0,0,1,0,.48,1.38,1.38,0,0,1-.2.45,1.33,1.33,0,0,1-.14.19l-.1.08a1.54,1.54,0,0,1-.35.23l-.22.08-.14,0a4.77,4.77,0,0,1-1.19.06l-.93-.07c-.6-.06-1.17-.14-1.77-.22l.84-.17a13.92,13.92,0,0,0-1.38,1,6,6,0,0,0-1.07,1.08,1.38,1.38,0,0,0-.19.36,1.24,1.24,0,0,0,.05.27.52.52,0,0,0,.16.25.36.36,0,0,0,.12.08s.15.06.06,0l1,.79a4,4,0,0,1,.25,1.18,2.69,2.69,0,0,1,0,.39,1.85,1.85,0,0,1-.12.48,1.82,1.82,0,0,1-.33.58,2,2,0,0,1-.6.43,2.22,2.22,0,0,1-.59.15h-.45a3.24,3.24,0,0,1-.63-.15,6.83,6.83,0,0,1-.93-.4l-.56-.6s-.06-.09-.07-.09,0,0,.07,0a.54.54,0,0,0,.28,0c.06,0,0,0,0,0a4,4,0,0,0-.78,1.26,8.78,8.78,0,0,0-.33.85c-.11.35-.25.72-.39,1.07a11.56,11.56,0,0,1-1.08,2.09,5.44,5.44,0,0,1-.93,1,3.3,3.3,0,0,1-.79.47l-.12,0s-.12,0-.06,0a.56.56,0,0,0,.17-.09.51.51,0,0,0,.21-.21c.08-.19,0,.07,0,.31a5.63,5.63,0,0,0,.11.86,24.54,24.54,0,0,0,1.13,3.77l-.44-.57a8.43,8.43,0,0,1,1.68,1.7,7.15,7.15,0,0,1,1.09,2.13,6.55,6.55,0,0,1-.36,4.79,3.9,3.9,0,0,1-.32.59,2.82,2.82,0,0,1-.26.34,2.25,2.25,0,0,1-.44.39,1.83,1.83,0,0,1-.85.28,1.71,1.71,0,0,1-.94-.25,2.27,2.27,0,0,1-.73-.76,7.93,7.93,0,0,1-.85-2.21,35.32,35.32,0,0,1-.75-4.07c-.15-1.31-.37-2.61-.58-3.91a35.27,35.27,0,0,0-.76-3.74c0-.13-.09-.26-.1-.29s0,0,0,.06a.24.24,0,0,0,.08.09.91.91,0,0,0,.44.28,2.35,2.35,0,0,1-.36-.18,1.15,1.15,0,0,1-.21-.15,11.09,11.09,0,0,1-.83-.8c-.47-.47-.91-.93-1.37-1.35-.88-.83-2-1.59-2.54-1.5a12.18,12.18,0,0,1-2.26-.22c-.68-.13-1.35-.27-2-.43q-2-.47-3.93-1.08a36.62,36.62,0,0,1-7.57-3.25,13.59,13.59,0,0,1-1.78-1.24l-.81-.71c-.22-.18-.41-.39-.65-.56a12.22,12.22,0,0,0-3.21-1.67,20.28,20.28,0,0,0-3.65-.9,15.41,15.41,0,0,0-3.67-.21l-.17,0-.1,0s0,0,0,0l-.68.63a14,14,0,0,1-1.68,1.36,12.5,12.5,0,0,1-3.95,1.8,16.52,16.52,0,0,1-4.22.55l-2,0c-.65,0-1.3.05-2,.1-2.62.16-5.27.42-8,.55a33.21,33.21,0,0,1-8.23-.41,12.1,12.1,0,0,1-4-1.67,34.23,34.23,0,0,0-3.33-2,53.43,53.43,0,0,0-7.17-3.09c-.61-.21-1.23-.4-1.84-.56-.29-.07-.61-.16-.88-.2a2.29,2.29,0,0,0-.4-.06l-.16,0c-.05,0,0,0,0,0h0l-.06,0-.23.06a2.16,2.16,0,0,1-.39.07c-.24,0-.42,0-.59,0h-1a9.33,9.33,0,0,0-1.78.19,6.66,6.66,0,0,0-3.05,1.57,11.06,11.06,0,0,0-2.2,2.87l.08-.76a13.54,13.54,0,0,1,.46,3.56,8,8,0,0,1-.87,3.64,6.77,6.77,0,0,1-.57.83,5.29,5.29,0,0,1-.71.71c-.59.47-1,.66-1.33,1a3.68,3.68,0,0,0-.89,1c-.14.21-.22.41-.47.76a1.27,1.27,0,0,1-.23.27,1.46,1.46,0,0,1-.33.26,1.94,1.94,0,0,1-.78.28,5.51,5.51,0,0,1-2-.29c-.55-.14-1.12-.35-1.6-.49a3.55,3.55,0,0,0-2.57.07c-1.58.71-2.76,2.66-3.36,4.5l-.05.15,0,.08a25.33,25.33,0,0,1-3.31,4.27,8.66,8.66,0,0,1-1.11.93,3.27,3.27,0,0,1-1.67.64,2,2,0,0,1-1.15-.31,2,2,0,0,1-.42-.38,2.42,2.42,0,0,1-.27-.34c-.24-.34-.48-.67-.74-1-.51-.69-1.07-1.37-1.57-2.18a5.72,5.72,0,0,1-.93-2.88,5,5,0,0,1,.21-1.54c.14-.46.3-.9.47-1.31.34-.83.71-1.63,1.1-2.41.78-1.58,1.62-3.11,2.5-4.61.45-.76.9-1.51,1.4-2.25.26-.37.5-.73.82-1.12a3.24,3.24,0,0,1,.28-.31c.1-.1.34-.28.28-.26a2.42,2.42,0,0,0,.2-.28,26.35,26.35,0,0,0,1.74-4.65c.24-.81.46-1.64.61-2.42,0-.1,0-.2,0-.28s0-.18,0-.12,0-.12-.1-.22a3.06,3.06,0,0,0-.7-.69l-.37-.27v-.39a3.59,3.59,0,0,1,.48-1.93,2.39,2.39,0,0,1,.43-.48l.14-.1-.1.07a.94.94,0,0,0-.12.18.6.6,0,0,0,0,.5,2.53,2.53,0,0,0-.28-.3A16.25,16.25,0,0,0,192.3,391c-.41-.27-.83-.52-1.24-.74-.21-.11-.42-.22-.61-.3l-.21-.07h.11s.06,0,0,0h-.13l-.27,0-.13-.05a1,1,0,0,1-.21-.11,3.81,3.81,0,0,1-.73-.66c-.18-.21-.35-.41-.51-.62l-.94-1.21c-1.22-1.62-2.4-3.23-3.7-4.73a15.61,15.61,0,0,0-2-2,7.46,7.46,0,0,0-2.46-1.16,24.1,24.1,0,0,0-5.77-.87,32.33,32.33,0,0,0-5.9.3A19.94,19.94,0,0,0,162,380.3c-.84.38-1.76.95-2.69,1.38a17.21,17.21,0,0,1-3,1.12c-1,.29-2.11.34-3,.54a10.73,10.73,0,0,0-2.63,1.09c-1.85.9-3.69,1.68-5.53,2.53a70.9,70.9,0,0,0-10.56,5.61,12.84,12.84,0,0,0-2.18,1.87c-.3.32-.62.73-.94,1.15s-.66.8-1,1.18a18,18,0,0,1-4.91,3.88c-.14.06-.27.12-.45.18a.85.85,0,0,1-.23,0c-.06,0-.2,0-.08,0a.41.41,0,0,0,.38-.1l-.11.11-.51.53-1.06,1.1a30.26,30.26,0,0,1-2.3,2.07,13.21,13.21,0,0,1-5.58,2.9l.42-.3a17,17,0,0,1-2.09,2.76,16.48,16.48,0,0,1-2.61,2.25,12.6,12.6,0,0,1-3.07,1.59,13.14,13.14,0,0,1-3.4.73l.43-.23A37.26,37.26,0,0,1,99,420.55a16.59,16.59,0,0,1-3.89,2.29,6.74,6.74,0,0,1-1.1.36c-.39.11-.74.18-1.09.25-.7.15-1.4.32-2.1.5-1.39.36-2.77.79-4.12,1.28-.67.25-1.35.5-2,.8a6.28,6.28,0,0,0-1.7,1l-6.15,6.22,0,0,0,0C74.27,435,71.71,436.58,69,438a16.71,16.71,0,0,1-2.14,1,4.7,4.7,0,0,1-.65.17l-.41,0a.88.88,0,0,1-.38-.13.79.79,0,0,1-.3-.44,1.15,1.15,0,0,1,0-.32,1,1,0,0,1,0-.22,1.34,1.34,0,0,1,.13-.34,4.86,4.86,0,0,1,.3-.56,33.29,33.29,0,0,1,2.83-3.64c1-1.16,2-2.28,3-3.4L73,428.45l.79-.83.39-.41.21-.21a1.94,1.94,0,0,1,.32-.23,15.43,15.43,0,0,1,2.15-1L79,425a12.26,12.26,0,0,0,1.92-.94A5.46,5.46,0,0,0,82,422.37a11.74,11.74,0,0,0,1.27-4.11,3.28,3.28,0,0,0-.08-1c0-.09-.1-.43-.13-.66a5.19,5.19,0,0,1,0-.68,7,7,0,0,1,.9-2.26,14.39,14.39,0,0,1,3-3.6A8.2,8.2,0,0,1,91.25,408a27.41,27.41,0,0,1,4.61-.07,44.65,44.65,0,0,0,4.48,0,15,15,0,0,0,4.29-.84,23.62,23.62,0,0,0,3.86-2.17,129.56,129.56,0,0,0,14.71-10.46,33.93,33.93,0,0,0,6.11-6.51,43.66,43.66,0,0,0,4.29-7.86c.6-1.38,1.15-2.77,1.69-4.18a37.62,37.62,0,0,1,1.78-4.23c1.44-2.7,3.16-5.19,4.3-7.93a14.67,14.67,0,0,0,1.13-4.22,11.71,11.71,0,0,0-.45-4.31,27.36,27.36,0,0,0-4-7.92l0-.05,0,0c-1.3-3.16-2.57-6.32-3.69-9.57-.27-.81-.54-1.63-.76-2.48a6.72,6.72,0,0,1-.24-1.37c0-.15,0-.32,0-.45a0,0,0,0,0,0,0l0-.08a2.37,2.37,0,0,0-.25-.46,29.46,29.46,0,0,0-3.23-3.82,82.14,82.14,0,0,0-7.44-6.9c-.33-.26-.66-.52-1-.75a5,5,0,0,0-1-.56s0,0,0,0h-.2a1.73,1.73,0,0,1-.42-.05c-.26-.06-.46-.15-.68-.22-.42-.17-.81-.36-1.19-.53a8.25,8.25,0,0,0-4.63-1,2,2,0,0,0-.55.13,2.49,2.49,0,0,0-.54.2l-1.19.56a3.92,3.92,0,0,1-2.86-.08,7.92,7.92,0,0,1-3.72-3.88,11,11,0,0,1-.86-2.54c-.16-.89-.24-1.72-.34-2.58-.18-1.7-.33-3.39-.58-5.05a10.79,10.79,0,0,0-.56-2.35A.91.91,0,0,0,102,303s0,0,0,0l-.2-.09a2.24,2.24,0,0,1-.34-.22,13,13,0,0,1-1-.85c-1.28-1.16-2.48-2.36-3.74-3.48a21.67,21.67,0,0,0-1.93-1.59,4.65,4.65,0,0,0-1-.56c-.07,0-.1,0-.14,0s-.1,0-.18,0l-.24,0a2.36,2.36,0,0,1-.76-.29,8.38,8.38,0,0,1-2-1.82A22.9,22.9,0,0,1,88.84,292l.4.24c-1.56-.15-3.1-.31-4.65-.55a11.86,11.86,0,0,1-1.21-.25l-.17-.05-.25-.12c-.12-.05,0,0-.06,0s-.34-.05-.53-.06c-.75-.06-1.53-.08-2.29-.1C77,291,73.9,291,70.81,291l.4-.19c-.44.48-.88.93-1.35,1.38-.23.22-.47.44-.72.65l-.4.31c-.11.09-.38.25-.31.22a.9.9,0,0,0-.09.49,3.84,3.84,0,0,0,.11.8,6.31,6.31,0,0,0,.64,1.59,2.47,2.47,0,0,0,.46.59s.06,0,.09.07.17.1.24.15a3.53,3.53,0,0,1,.45.35A9.39,9.39,0,0,1,71.6,299a7.57,7.57,0,0,1,.86,1.84,3.88,3.88,0,0,1,.08,2.17,2.8,2.8,0,0,1-.59,1l-.43.39-.32.27A14.32,14.32,0,0,0,70,306a8.06,8.06,0,0,1-3.12,2.51,6.34,6.34,0,0,1-4.06,0,16.06,16.06,0,0,1-3.54-1.63l-.18-.1-.07-.2a16.68,16.68,0,0,1-.82-4,17,17,0,0,1,0-2c0-.33,0-.71,0-1a3.32,3.32,0,0,0-.06-.83,7.23,7.23,0,0,0-1.67-3.14,16.07,16.07,0,0,0-2.74-2.54l.24.1a26.24,26.24,0,0,0-3.54-.38,10.88,10.88,0,0,0-3.41.3,2.5,2.5,0,0,0-.68.3c-.14.07-.5.36-.83.52a3.86,3.86,0,0,1-2.14.31,9.38,9.38,0,0,1-3.67-1.42l.31.11c-1.69-.13-3.39-.23-5.07-.26-.42,0-.84,0-1.24,0l-.56,0c-.11,0-.09,0-.16,0a2.27,2.27,0,0,1-.43.13,9.87,9.87,0,0,1-2.76.05,11.73,11.73,0,0,1-2.65-.57,6.83,6.83,0,0,1-1.29-.6,2.69,2.69,0,0,1-.68-.53,1.08,1.08,0,0,1-.27-.74,1.12,1.12,0,0,1,.34-.75,2.42,2.42,0,0,1,.77-.46,5.07,5.07,0,0,1,.69-.23c.44-.12.88-.21,1.31-.29.88-.14,1.73-.25,2.61-.32h.16l.16.07c.84.34,1.72.65,2.58.91a13.24,13.24,0,0,0,1.29.3,3.62,3.62,0,0,0,1.23,0,44.51,44.51,0,0,0,5.49-.78,6.74,6.74,0,0,0,1.17-.37s.16-.09.11-.07v0l0,0,.09-.11a1.17,1.17,0,0,1,.36-.25,2.9,2.9,0,0,1,.9-.23,19.41,19.41,0,0,1,2.94,0c1.91.08,3.79.25,5.68.46h-.27a6.08,6.08,0,0,0,3.64-2.69,4.3,4.3,0,0,1,.53-.7,3.49,3.49,0,0,1,.68-.5,5.49,5.49,0,0,1,1.41-.55,11.63,11.63,0,0,1,2.79-.3,16.56,16.56,0,0,1,2.73.2,11.12,11.12,0,0,1,2.73.71,4.66,4.66,0,0,1,.72.39l.1.05.24.06a10.45,10.45,0,0,0,1.2.18c.84.09,1.7.14,2.57.17,3.47.13,7,.09,10.47,0s7-.16,10.48-.29H93l.19.08a34.18,34.18,0,0,0,4.64,1.67c.8.21,1.59.39,2.39.52a9.66,9.66,0,0,0,2.3.13c1.21-.07,2.17-1.46,2.8-2.86a19.51,19.51,0,0,0,1.26-4.65v-.13l0-.1q1.11-2.61,2.13-5.25a43.84,43.84,0,0,0,1.74-5.27,4.32,4.32,0,0,0,.09-.58s0,0,0-.06a1.88,1.88,0,0,1,0-.55,2.52,2.52,0,0,1,.12-.39,4.83,4.83,0,0,1,1.11-1.38,23.5,23.5,0,0,1,2.33-1.84,44.75,44.75,0,0,1,5-3,21.85,21.85,0,0,1,2.73-1.2,4.11,4.11,0,0,1,1.81-.28h.1l.11,0a2.06,2.06,0,0,0,.44-.25,11.42,11.42,0,0,0,1.84-1.84,25.66,25.66,0,0,0,1.61-2.22,27.22,27.22,0,0,0,2.51-4.89,11.91,11.91,0,0,0,1-5.12l.43.7c-1.14-.72-2.31-1.43-3.48-2.08-.59-.33-1.19-.64-1.78-.92-.29-.14-.59-.27-.87-.38a3,3,0,0,0-.67-.19h0a.3.3,0,0,0,.15-.05,2,2,0,0,1-.5.16,1.65,1.65,0,0,1-1.15-.21,2,2,0,0,1-.93-1.7,1.77,1.77,0,0,1,.74-1.45l.37-.2c.25-.11.53-.28.87-.46a2.67,2.67,0,0,1,1.55-.39,1.62,1.62,0,0,1,1.06.63,1.76,1.76,0,0,1,.24.4l.13.28a3.46,3.46,0,0,0,.87,1.33,1.44,1.44,0,0,0,.21.15c.08,0,0,0,.22,0l1,.13c.66.07,1.32.12,2,.14a11.85,11.85,0,0,0,1.9-.07,4.37,4.37,0,0,0,.78-.17c.24-.07.26-.2.18,0s0,.06,0,.08V241a4.08,4.08,0,0,1,.06-.63,11.21,11.21,0,0,1,.23-1.1c.19-.71.4-1.39.64-2.05.46-1.33,1-2.62,1.53-3.91l.07-.15.14-.15a3.38,3.38,0,0,0,.68-1.1,1.33,1.33,0,0,0,0-1,2.26,2.26,0,0,0-.11-.22l-.16-.2c-.17-.16-.34-.33-.55-.5-.41-.34-.86-.67-1.32-1a60.46,60.46,0,0,0-5.84-3.54,15.51,15.51,0,0,0-1.44-.7l-.08,0,.07,0h-.12l-.35-.05-.25-.06-.89-.24a29,29,0,0,0-3.21-.84c-.09,0-.22,0-.24,0h0l.11,0s.18-.08-.14,0a1.21,1.21,0,0,1-.54.05,2.07,2.07,0,0,1-.85-.34c-.16-.11-.31-.22-.44-.33a14.05,14.05,0,0,1-1.35-1.31c-.81-.88-1.56-1.78-2.31-2.71l.19.18c-2.13-1.63-4.29-3.25-6.45-4.83L110,213.12l-.81-.55-.37-.22c-.06,0,0,0,0,0s-.12,0-.2-.07a1.48,1.48,0,0,1-.27-.11,17.27,17.27,0,0,1-1.84-1.22l-1.63-1.19c-.54-.4-1.08-.78-1.62-1.15a11.87,11.87,0,0,0-1.57-.93l-.48-.21a4.06,4.06,0,0,1-.58-.34c-.35-.22-.61-.44-.9-.66-.55-.45-1.07-.9-1.58-1.37-2-1.87-3.93-3.77-5.79-5.79-.89-1-1.82-1.92-2.78-2.78-.49-.43-1-.85-1.48-1.21a4.64,4.64,0,0,0-1.37-.75c-.08,0-.1,0-.07,0h0l0,0-.09,0-.4.12a3.89,3.89,0,0,1-1.44,0,6.89,6.89,0,0,1-2.26-.89,9.59,9.59,0,0,1-3.25-3.21,6.29,6.29,0,0,1-.85-2.3,4.26,4.26,0,0,1,.43-2.65l.2-.38a1,1,0,0,0,0,.35,1,1,0,0,0,.18.45l.09.09,0,0-.06-.07-.67-.78a3.69,3.69,0,0,0-1.17-1,1,1,0,0,0-.24-.08,4.27,4.27,0,0,1-.65-.16,7.1,7.1,0,0,1-1.1-.52c-.65-.37-1.23-.76-1.8-1.15-1.14-.8-2.22-1.63-3.29-2.5l-.14-.11-.11-.17a45.23,45.23,0,0,0-3.74-5.08c-.34-.38-.69-.75-1-1.07a4.21,4.21,0,0,0-1-.69s0,0,0,0h-.24a1.56,1.56,0,0,1-.3,0c-.13,0-.26,0-.38-.09a1.82,1.82,0,0,1-.48-.22,1.76,1.76,0,0,1-.51-.51,1.82,1.82,0,0,1-.23-.73c0-.11,0-.22,0-.33l0-.24a2.17,2.17,0,0,1,.14-.39,3.08,3.08,0,0,1,.31-.55,5.23,5.23,0,0,1,.68-.8l-.3,1.25a3.12,3.12,0,0,0-.36-.59,2,2,0,0,0-.52-.46,1.73,1.73,0,0,0-.6-.22l-.5-.06a6.69,6.69,0,0,1-.67-.11,9.52,9.52,0,0,1-2.38-.91,7.72,7.72,0,0,1-1.12-.77,3.34,3.34,0,0,1-1-1.47,4.08,4.08,0,0,1-.09-.61,4.87,4.87,0,0,1,.1-.65,2.66,2.66,0,0,1,.59-.92l.4-.39a2.37,2.37,0,0,0,.25-.29,5.54,5.54,0,0,0,.46-.78,9.88,9.88,0,0,1,.59-1.12,3.67,3.67,0,0,1,.34-.41,1.79,1.79,0,0,1,1.57-.47,2.15,2.15,0,0,1,.59.2,3.63,3.63,0,0,1,.68.47c.2.16.34.3.47.42.55.51,1.1,1,1.64,1.62a10.68,10.68,0,0,1,.79.93A5,5,0,0,1,65,164.8a2.27,2.27,0,0,1,.14,1.14,1.92,1.92,0,0,1-.25.73c-.06.09,0,0,0,0l0-.09c0-.06,0-.11,0-.12,0-.19,0,.13.16.34a5.59,5.59,0,0,0,1.06,1.43,3.4,3.4,0,0,0,.27.23l.05,0-.1,0h-.09l.2,0a2.81,2.81,0,0,1,1,.47c.19.15.37.3.52.44a11.57,11.57,0,0,1,1.64,1.87,6.45,6.45,0,0,1,.7,1.19,2.34,2.34,0,0,1,.15.52,2.75,2.75,0,0,1,0,.34.5.5,0,0,0,0-.24c-.06-.17-.06-.11,0-.05A6,6,0,0,0,72,174a7.16,7.16,0,0,0,.86.33l.27.06h.17l.3,0a1.39,1.39,0,0,1,.44.17,1.28,1.28,0,0,1,.31.2,4.05,4.05,0,0,1,1,1.32c.2.39.35.76.5,1.13l.2.53.09.24,0,.09h0a1.82,1.82,0,0,0-.12-.19.85.85,0,0,0-.26-.24l.26.22.1.1.2.2.4.39L80,181.63l1.59,1.49c.27.24.54.49.8.71s.62.47.4.36l.38.06c.19,0,.41.06.63.1a5.64,5.64,0,0,1,1.35.45,6.73,6.73,0,0,1,2.14,1.65,15.16,15.16,0,0,1,2.5,4.13A10.66,10.66,0,0,0,92,193.82a16.52,16.52,0,0,0,7,4l.32.09.2.16a62.41,62.41,0,0,1,6.43,5.9c.25.27.5.6.73.87s.38.43.63.66c.45.45,1,.91,1.5,1.35,1.06.88,2.16,1.74,3.28,2.58s2.27,1.67,3.42,2.48l1.73,1.2c.56.38,1.21.84,1.67,1.09a57.49,57.49,0,0,0,7.57,3.28,13.32,13.32,0,0,0,1.85.48c.4.08,1.37.06,2.18.26a4.74,4.74,0,0,1,2.61,1.36,3.2,3.2,0,0,1,.78,1.67,4.77,4.77,0,0,1-.08,1.46c-.06.3,0,.44-.06.25s0,0,.24.15.54.3.84.46l.23.12.32.2a3.81,3.81,0,0,1,.57.41c.67.56,1.12,1.07,1.59,1.46a4.26,4.26,0,0,0,1.35.83,4.07,4.07,0,0,0,3.05-.5,17.05,17.05,0,0,0,3.2-2.2,14,14,0,0,0,2.56-2.9,11.07,11.07,0,0,0,.89-1.66c.12-.28.23-.57.32-.85a5.24,5.24,0,0,0,.18-.76l.08-.51.28-.3a35,35,0,0,1,3.39-3.27,18.69,18.69,0,0,1,1.92-1.37,11.92,11.92,0,0,0,1.53-1.28,3.9,3.9,0,0,0,1.41-2.83,43.62,43.62,0,0,1-.08-4.66,9.83,9.83,0,0,0,0-1,1.92,1.92,0,0,0,0-.34s0-.07,0,0a.61.61,0,0,0,.07.1.88.88,0,0,0,.24.22.64.64,0,0,0,.11.06l-.06,0-.14-.06-.29-.15-.56-.32a12.36,12.36,0,0,1-1.06-.72,12.14,12.14,0,0,1-3.31-3.82,13.53,13.53,0,0,1-1.53-4.77,19,19,0,0,1,0-4.88v0l0-.14.47-2.15.12-.54.06-.27a5.39,5.39,0,0,1,.16-.6,5.07,5.07,0,0,1,.9-1.38,5.71,5.71,0,0,1,2.57-1.69,4.32,4.32,0,0,1,3.34.37,7,7,0,0,1,2.14,2,14.61,14.61,0,0,0,1.33,1.61,7,7,0,0,0,1.48,1.19,3.32,3.32,0,0,0,.75.31,1.51,1.51,0,0,0,.33.07h.13s.12,0,0,0l1.73,1.13a5,5,0,0,1,0,1.64,3.9,3.9,0,0,1-.63,1.71c-.31.5-1.32,1.24-.79.76.05-.09,0,0,0,0s0,.19,0,.34a8.44,8.44,0,0,0,.34,1.94c.09.34.19.69.31,1l.18.5.09.23,0,.1,0,0s0,0,0,0a1.61,1.61,0,0,1,.16.54,1.65,1.65,0,0,1,0,.52l0,.15c0,.09-.08.21-.11.28l-.12.22-.13.22a.53.53,0,0,0-.09.21s0-.17,0-.11a1.4,1.4,0,0,0,.43.33,3,3,0,0,0,.4.2l.48.22c1.82.75,3,2.17,4,2.71a2,2,0,0,0,1.35.31,5,5,0,0,0,1.68-.58c.29-.18.59-.33.89-.53l.89-.61a13.76,13.76,0,0,0,1.57-1.37,8.16,8.16,0,0,0,2-3.35,6.51,6.51,0,0,0,.31-1.9,6.17,6.17,0,0,0,0-1,4.81,4.81,0,0,0-.17-.82l-.07-.24v-.22a78.77,78.77,0,0,0-.59-8.05,12.84,12.84,0,0,0-.36-1.79,2.91,2.91,0,0,0-.1-.28c0-.11-.13-.25-.2-.38s-.32-.54-.49-.82c-.7-1.11-1.47-2.22-2.28-3.26a19,19,0,0,0-1.23-1.5c-.21-.23-.42-.45-.6-.61a.37.37,0,0,0-.1-.07s-.08-.07,0,0a.27.27,0,0,0,.12,0c.06,0-.05,0-.12,0l-.22-.1a2.65,2.65,0,0,1-.4-.24,1,1,0,0,1-.2-.18,4.54,4.54,0,0,1-.49-.56c-.12-.16-.26-.33-.36-.49-.21-.31-.41-.63-.6-.94-.38-.62-.72-1.24-1.05-1.86-.67-1.25-1.29-2.49-1.88-3.8-.15-.34-.28-.65-.44-1.08-.4-1.23.22.12-.1-.41l-.68-.73a6.84,6.84,0,0,1-.81-1,3.39,3.39,0,0,1-.22-.39c-.06-.15-.21-.52-.07-.13a.89.89,0,0,0,.21.26l0,0-.08-.05c-.22-.14-.5-.31-.8-.48-.6-.34-1.22-.69-1.84-1.1a16.76,16.76,0,0,1-3.48-2.87,11,11,0,0,1-2.37-4.1,6.9,6.9,0,0,1-.29-1.17l-.11-.6-.07-.5c-.08-.67-.18-1.33-.29-2-.22-1.32-.49-2.63-.82-3.91a20.82,20.82,0,0,0-1.23-3.6c-.1-.24-.31-.52-.25-.45s0,0,0,0l-.11-.1-.2-.22-.23-.33-.32-.54-1-1.85a14.34,14.34,0,0,0-.95-1.58,4.38,4.38,0,0,0-.46-.52c-.13-.13-.19-.08,0-.08l-1.15-.65a11,11,0,0,1-1.57-3.23,4.39,4.39,0,0,1-.16-1.16c0-.16,0-.06,0-.08h0l-.06-.22a12.15,12.15,0,0,0-.49-1.24c-.4-.87-.86-1.75-1.34-2.62-.25-.43-.49-.86-.75-1.27l-.37-.61-.16-.23,0,0h0l0,0a1.41,1.41,0,0,0,.48.33,1.21,1.21,0,0,0,.58.09,1.57,1.57,0,0,1-.3,0,2.18,2.18,0,0,1-.61-.25l-.25-.19-.07-.06-.08-.07-.15-.15-.3-.29-.55-.55L143,123.09l-2.14-2.22c-1.42-1.5-2.83-3-4.22-4.54l-1-1.18c-.35-.41-.68-.78-1.07-1.32l-.07-.1a3.13,3.13,0,0,1-.16-.29,2.8,2.8,0,0,1-.23-.71.41.41,0,0,0,0,.22s0,0,0,0a3.11,3.11,0,0,0-.27-.45,6.65,6.65,0,0,0-.79-1,4.91,4.91,0,0,0-1.9-1.29,2.37,2.37,0,0,0-1.86.11,2.83,2.83,0,0,0-.47.27l-.24.14-.23.2-.46.4a1.33,1.33,0,0,0,.2-.23l.08-.16,0-.08s0,0,0,0l-.05.17-.11.37a21.2,21.2,0,0,1-1.22,3.08,16.69,16.69,0,0,1-4.07,5.36,15.7,15.7,0,0,1-6,3.18l-1.64.37c-.55.11-1.07.16-1.61.24s-1.07.11-1.61.15a14.71,14.71,0,0,1-1.63.06,21.53,21.53,0,0,1-6.54-.91,19.5,19.5,0,0,1-5.92-3,25.82,25.82,0,0,1-4.66-4.56c-.35-.42-.66-.85-1-1.27s-.62-.94-.93-1.41a16.83,16.83,0,0,1-1.44-3.07,19.89,19.89,0,0,1-1.09-6.53,23.72,23.72,0,0,1,.17-3.27,21.52,21.52,0,0,1,.62-3.29l0-.13.07-.12a33.08,33.08,0,0,1,4-5.94,26.15,26.15,0,0,1,5.36-4.85,15.75,15.75,0,0,1,7-2.65c1.26-.09,2.54-.08,3.61-.09h3.37l-.72.17a16.27,16.27,0,0,0,1.59-.95,7.32,7.32,0,0,0,1.28-1c.14-.12.19-.35.1,0a2.72,2.72,0,0,0,0-.62,8,8,0,0,0-.42-1.58l-.07-.16,0-.15c-.45-2.38-1-4.8-1.53-7.18s-1.16-4.76-1.83-7.11-1.38-4.69-2.22-7a42.55,42.55,0,0,0-2.92-6.5l.11.17c-.76-.95-1.6-1.92-2.46-2.82a17.31,17.31,0,0,0-2.66-2.35,1.87,1.87,0,0,0-.32-.2l-.5-.31a3,3,0,0,1-.58-.46,3.46,3.46,0,0,1-.49-.53A6.52,6.52,0,0,1,98,41.92a13.79,13.79,0,0,1-.53-4.4l.21.87a34.53,34.53,0,0,1-2.53-5.45,18.59,18.59,0,0,1-.82-3,7.85,7.85,0,0,1,.08-3.56,4.33,4.33,0,0,1,1.17-1.89,4.59,4.59,0,0,1,1.93-1c.32-.07.64-.11,1-.15l.89,0,.84.07c.29,0,.59.1.89.16A9,9,0,0,1,104.24,25a14.9,14.9,0,0,1,2.35,2.19,36.41,36.41,0,0,1,5.75,10.43,81.64,81.64,0,0,1,3.37,11.17l-.19-.48c1,1.65,2.09,3.31,3.19,4.91.55.8,1.11,1.59,1.69,2.34.29.38.58.73.88,1.08a6.28,6.28,0,0,0,.82.82l.15.12.46.35a6.45,6.45,0,0,1,.68.62c.41.4.73.78,1.08,1.17.68.77,1.33,1.55,2,2.33,1.27,1.57,2.46,3.18,3.64,4.79,2.35,3.24,4.58,6.55,6.69,10a92.08,92.08,0,0,1,5.74,10.64L141,86.51a8.92,8.92,0,0,1,1.37,0,4.39,4.39,0,0,1,.85.11,2.58,2.58,0,0,1,.7.29,1.83,1.83,0,0,1,.27.21l.14.13a1.92,1.92,0,0,1,.16.21,1.75,1.75,0,0,1,.29,1.07,2,2,0,0,1-.46,1.12,1.66,1.66,0,0,1-.22.23,1.36,1.36,0,0,1-.18.17,6.13,6.13,0,0,1-.63.46l-.29.18c-.07,0,0,0,0,0l0,0a.43.43,0,0,0,.09-.12,1.41,1.41,0,0,0,0,.37,5.2,5.2,0,0,0,.19.84,14.11,14.11,0,0,0,.8,1.88,38.28,38.28,0,0,0,2.22,3.77c.81,1.24,1.69,2.47,2.57,3.63l.18.23.08.25c.5,1.7.9,3.35,1.25,5a51.4,51.4,0,0,1,.81,5.14,30.07,30.07,0,0,1,.16,5.3,14.65,14.65,0,0,1-1.27,5.47l.07-.16a1.21,1.21,0,0,0,0,.21,2.53,2.53,0,0,0,0,.27,1,1,0,0,0,.44.75,3.34,3.34,0,0,0,.6.3l.71.28.22.61a4.39,4.39,0,0,1,.18.72,4.6,4.6,0,0,1,0,.64,4.26,4.26,0,0,1-.16,1.27,4.79,4.79,0,0,1-1.25,2.13l.43-1.23a5.14,5.14,0,0,0,.23.84,3.05,3.05,0,0,0,.42.74,1.6,1.6,0,0,0,.51.44l.39.24a2.64,2.64,0,0,1,.39.3,7.21,7.21,0,0,1,.62.61,13.25,13.25,0,0,1,1.6,2.44,25.84,25.84,0,0,1,1.15,2.5l-.68-.78a8.14,8.14,0,0,1,2.19,1.86,5.81,5.81,0,0,1,.8,1.38,3.85,3.85,0,0,1,.23.84,2.3,2.3,0,0,1,.05.45v.23c0,.06,0,.19,0,.14a.08.08,0,0,0,0-.07.36.36,0,0,0-.08-.18s0-.08-.09-.11,0,0,0,0a6.57,6.57,0,0,0,.81.32,7.06,7.06,0,0,1,2.48,1.43,6.6,6.6,0,0,1,1.62,2.44,9.17,9.17,0,0,1,.41,1.29l.25,1.09a2.28,2.28,0,0,0,.2.52s-.19-.11-.1-.07,1.15-.22,2.15-.23a4.94,4.94,0,0,1,1.63.25,5.13,5.13,0,0,1,1.44.79,7.85,7.85,0,0,1,1.82,2.16,21.08,21.08,0,0,1,1.92,4.54,73.67,73.67,0,0,0,3.09,8.44,40.55,40.55,0,0,0,4.43,7.62,24.67,24.67,0,0,0,2.89,3.22l.4.36.28.21a4.61,4.61,0,0,0,.74.35,5.37,5.37,0,0,0,1.73.29,3.25,3.25,0,0,0,1.49-.37,1.77,1.77,0,0,0,.83-1,4.12,4.12,0,0,0,.21-1.63c0-.32-.09-.64-.13-1s-.15-.69-.22-1a14.28,14.28,0,0,0-1.53-3.87,9.51,9.51,0,0,0-1.18-1.59,7,7,0,0,0-.69-.65l-.35-.26c-.1-.07-.28-.16-.27-.16l-.61-.49a24.18,24.18,0,0,1-3-6.26l-.24-.85-.2-.62a14.18,14.18,0,0,0-.6-1.34,30.81,30.81,0,0,0-1.56-2.7,60.46,60.46,0,0,0-3.69-5.16l-.49-.59-.18-.2a.16.16,0,0,0,.08.06l.16.08.15.06h.13c-.05,0-.39,0-.66,0a8.15,8.15,0,0,1-1,0,3.48,3.48,0,0,1-1.28-.31,2.48,2.48,0,0,1-1.21-1.22,3.49,3.49,0,0,1-.29-1.25l-.06-.84c-.07-1.11-.11-2.21-.13-3.31l0-1.67c0-.28,0-.55,0-.89a3,3,0,0,1,.13-.75,2.48,2.48,0,0,1,.29-.56,1.61,1.61,0,0,1,.54-.45,1.58,1.58,0,0,1,1.26-.06l.21.1a1.69,1.69,0,0,1,.29.21,1.8,1.8,0,0,1,.31.31c.14.17.24.33.34.47s.32.57.45.8a9.65,9.65,0,0,0,.79,1.17c.63.84,1.34,1.69,2,2.69a8.92,8.92,0,0,1,.89,1.72,4.41,4.41,0,0,1,.16.55c0,.18.08.5.09.46a2.84,2.84,0,0,0,.16.44,22.82,22.82,0,0,0,1.54,2.62c1.18,1.75,2.47,3.49,3.77,5.17l0,.05,0,0c.44.67.86,1.34,1.28,2,.21.35.41.69.62,1.07a5.13,5.13,0,0,1,.33.72.55.55,0,0,1,0,.1.36.36,0,0,0,0-.1.49.49,0,0,0-.1-.16l.15.15,3.4,3.19a46.6,46.6,0,0,1,3.34,3.52,15.26,15.26,0,0,1,2.72,4.39l-.95-.84a4.45,4.45,0,0,0,1.26,0,.92.92,0,0,0,.59-.23,1.18,1.18,0,0,0,0-.7c-.06-.22-.1-.42-.18-.64l-.27-.68-.07-.16,0-.09c-.2-.86-.37-1.71-.53-2.58-.08-.44-.15-.88-.22-1.33a9.38,9.38,0,0,1-.11-1.52l1.68,1.24a5.9,5.9,0,0,1-1.45.27,6,6,0,0,1-1.4-.09,5.86,5.86,0,0,1-2.56-1.16,7.58,7.58,0,0,1-1.74-2c-.21-.37-.39-.75-.58-1.13l-.43-1.16,1.48.81a6.83,6.83,0,0,1-2.66.1,4.46,4.46,0,0,1-2.58-1.31,4.87,4.87,0,0,1-1.21-2.58,11,11,0,0,1-.1-1.28l.08-1.22v-.12l0-.14a6.48,6.48,0,0,1,.71-1.36,4.38,4.38,0,0,1,1.15-1.22,3,3,0,0,1,2-.55,4.46,4.46,0,0,1,1,.25c.26.14.51.28.76.44a8.53,8.53,0,0,1,1.93,2.15,23,23,0,0,1,1.3,2.29l-1.17-.66a6,6,0,0,1,1.92.17,3,3,0,0,1,2,1.41l.13.27s0,0-.05-.08l-.08-.09a1,1,0,0,0-.21-.16,1.09,1.09,0,0,0-.42-.13,1,1,0,0,0-.49.06,1.13,1.13,0,0,0-.27.15l-.12.11a.45.45,0,0,0-.07.1s.1-.24.17-.46l.13-.39a2.53,2.53,0,0,1,.28-.61,1.33,1.33,0,0,1,.39-.39,1.08,1.08,0,0,1,.66-.22,1.23,1.23,0,0,1,.75.21,1.45,1.45,0,0,1,.42.46,2,2,0,0,1,.11.24l.14.39c.35.95.72,2,1,3a11.9,11.9,0,0,1,.33,1.68l.06.74.1.71c.34,1.94.81,3.94,1.28,5.91l.36,1.48.19.72.11.41a4.87,4.87,0,0,1,.06.53,3.09,3.09,0,0,0,1.06,2,13.52,13.52,0,0,0,4.93,2.6,12.82,12.82,0,0,0,1.36.33l1.54.23a3.5,3.5,0,0,1,1.06.38c.17.11.33.24.48.36l.37.39a9.15,9.15,0,0,1,.94,1.46,37.1,37.1,0,0,1,2.54,5.82,8.13,8.13,0,0,1,.34,3.45l-.06.42,0,.21s0,0,0,.06a.29.29,0,0,0,0,.14c0,.07,0,.13.06.22a4.24,4.24,0,0,0,.59,1.07,6.49,6.49,0,0,0,4.35,2.7,4.71,4.71,0,0,0,2.45-.46c.87-.4,1.74-.92,2.63-1.41a30.29,30.29,0,0,1,5.69-2.76,11.7,11.7,0,0,1,6.56-.35,12.15,12.15,0,0,1,3.07,1.19,22.6,22.6,0,0,1,2.71,1.73,13.8,13.8,0,0,1,2.36,2.29c.7.87,1.2,1.9,1.69,2.6a4,4,0,0,0,2,1.46,9.52,9.52,0,0,0,2.71.58,5.49,5.49,0,0,0,2.58-.46,4.54,4.54,0,0,0,1.9-1.59l.15-.24.16-.09a4.62,4.62,0,0,1,4.68.28c.63.38,1.27,1.12,1.46,1.18a2.33,2.33,0,0,0,1.41.06,10.9,10.9,0,0,0,3.32-1.5,24.18,24.18,0,0,0,3-2.32,22.81,22.81,0,0,0,2.62-2.77,19.52,19.52,0,0,0,2-3.25c.59-1.15,1.1-2.35,1.63-3.57.28-.61.55-1.22.89-1.85a4.82,4.82,0,0,1,1.52-1.8l-.36.61c.13-1.94.37-3.83.68-5.73a52.81,52.81,0,0,1,1.25-5.65,27.5,27.5,0,0,1,2.09-5.44,12,12,0,0,1,3.82-4.62l-.11.09a2.14,2.14,0,0,0,.41-.91,2.09,2.09,0,0,0,.06-.56c0-.09,0-.19,0-.29s0-.06,0-.18,0-.21,0-.31a3.51,3.51,0,0,1,.78-1.56,13,13,0,0,1,1-1.12,42.5,42.5,0,0,1,4.29-3.78l-.23.69a12.75,12.75,0,0,1-.35-1.82,2.37,2.37,0,0,1,0-.59,1,1,0,0,1,.28-.54,1.26,1.26,0,0,1,.34-.24c.37-.17.63-.23.83-.33s.25-.17.23-.15a.54.54,0,0,0,0-.11A3,3,0,0,0,294,141c-.1-.27-.19-.56-.28-.87a2.36,2.36,0,0,1,0-1.18,1.26,1.26,0,0,1,.46-.7,1.79,1.79,0,0,1,.33-.18l.16-.05s.09,0,0,0l-.11,0c-.19.17-.07.1-.07,0a2.94,2.94,0,0,0,0-.35,14.78,14.78,0,0,0,.05-1.65l-.09-3.46a25.22,25.22,0,0,1,.12-3.56,4.29,4.29,0,0,1,.24-1l.14-.28a2.26,2.26,0,0,1,.2-.28,3.45,3.45,0,0,0,.23-.28,14.62,14.62,0,0,0,.85-1.41c1.07-2,2-4.11,2.94-6.21l0,0,0-.06a6.58,6.58,0,0,0,1-3.16,6.32,6.32,0,0,0-.13-1.68,11.13,11.13,0,0,1-.28-1.9,6.32,6.32,0,0,1,1-3.8,13.83,13.83,0,0,1,2.61-2.78l-.18.31c.13-.71.24-1.43.33-2.13l.05-.52a2,2,0,0,0,0-.21s0,0,0,0l0-.06c-.12-.22-.39-.53-.61-.83a3.94,3.94,0,0,1-.93-2.27,3.36,3.36,0,0,1,.93-2.32,12.25,12.25,0,0,1,1.72-1.53,6.39,6.39,0,0,1,1-.62,1.69,1.69,0,0,1,.34-.11.86.86,0,0,1,.17,0h0l-.1,0a.46.46,0,0,0-.22.47v0s0,0,0,0a2.72,2.72,0,0,1-.12-.65,4.85,4.85,0,0,1,0-1.25,1,1,0,0,1,.09-.25.72.72,0,0,1,.19-.21.51.51,0,0,1,.45-.08.45.45,0,0,1,.26.14l.12.12a.77.77,0,0,1,.11.19,3,3,0,0,1,.22.6,10.65,10.65,0,0,1,.3,2.28,18,18,0,0,1-.45,4.46c-.31,1.48-.86,2.85-1.23,4.23a39.54,39.54,0,0,0-1.53,8.5v.08l0,.06a38.2,38.2,0,0,0-1.63,5.49,12.17,12.17,0,0,0,.15,2.79c.11,1,.24,1.92.33,2.9a11.65,11.65,0,0,1,0,3c0,.14-.09.28-.13.42l-.15.33-.3.66-.57,1.33a27.91,27.91,0,0,0-1.63,5.49,14,14,0,0,0,.05,5.63,13.82,13.82,0,0,0,2.8,4.89c1.19,1.51,2.53,2.91,3.77,4.42a19.82,19.82,0,0,1,1.72,2.41,11.18,11.18,0,0,1,1.15,2.76,17.73,17.73,0,0,1,.32,2.93,10,10,0,0,0,.68,2.73c.67,1.77,1.71,3.45,2.3,5.35a10.31,10.31,0,0,1,0,5.9l-.89,2.77a15.72,15.72,0,0,0-.48,2.81,7.66,7.66,0,0,0,1.24,5.31l.22.25.26.19a1.49,1.49,0,0,0,.56.25,1.57,1.57,0,0,0,1.18-.25,8.52,8.52,0,0,0,1.86-2.07,38.13,38.13,0,0,0,3.11-4.86,9,9,0,0,0,.57-1.28c.1-.41.16-.94.24-1.4l.45-2.87.28.29a5.78,5.78,0,0,1-1.1,0,2.26,2.26,0,0,1-1.11-.39,1,1,0,0,1-.26-1.23,4.2,4.2,0,0,1,.57-1l.11-.14.18.06a3.42,3.42,0,0,0,1.84.15,1.74,1.74,0,0,0,1.28-1.13,7.3,7.3,0,0,0,.41-1.9l.1-1a2.62,2.62,0,0,1,.28-1.08,57,57,0,0,0,4.65-6.57,11.52,11.52,0,0,0,1.21-3.76,7.29,7.29,0,0,1,1.77-3.71,3.94,3.94,0,0,1,1.86-1,2,2,0,0,1,1.11,0,1.43,1.43,0,0,1,.86.77,4.32,4.32,0,0,1,.24,2.09,13.85,13.85,0,0,1-.33,2c-.3,1.34-.8,2.59-1.11,3.88a25.51,25.51,0,0,0-.73,3.94,6.67,6.67,0,0,0,.06,2,8.09,8.09,0,0,0,.34.95,3.49,3.49,0,0,1,0,1.07,18.54,18.54,0,0,1-1.11,3.92,39.62,39.62,0,0,1-3.67,7.23,22,22,0,0,1-2.49,3.22,7.41,7.41,0,0,1-3.41,2.25l-.09,0-.07-.08a4.08,4.08,0,0,0-1.77-1.2,1.77,1.77,0,0,0-1.87.56,8.43,8.43,0,0,0-1.1,1.9l-1,2Zm-.27-.15,4-8.11,1-2a8.75,8.75,0,0,1,1.16-2,2.12,2.12,0,0,1,2.21-.66,4.42,4.42,0,0,1,1.93,1.3l-.17,0a7.05,7.05,0,0,0,3.22-2.17,21.61,21.61,0,0,0,2.45-3.17,39.07,39.07,0,0,0,3.61-7.16,18.17,18.17,0,0,0,1.08-3.84,3,3,0,0,0,0-.94,7.48,7.48,0,0,1-.34-.94,7.21,7.21,0,0,1-.07-2.07,25.52,25.52,0,0,1,.73-4c.31-1.32.82-2.58,1.1-3.88a14.53,14.53,0,0,0,.31-2,3.86,3.86,0,0,0-.21-1.87,1.13,1.13,0,0,0-1.47-.52,3.57,3.57,0,0,0-1.65.9,6.87,6.87,0,0,0-1.64,3.49l-.44,2a6.87,6.87,0,0,1-.81,1.91,56.36,56.36,0,0,1-4.65,6.61,2.48,2.48,0,0,0-.2.87l-.1,1a7.36,7.36,0,0,1-.43,2,2.82,2.82,0,0,1-.62.92,2.22,2.22,0,0,1-1,.51,4.09,4.09,0,0,1-2.14-.16l.29-.08a3.54,3.54,0,0,0-.5.82c-.11.29-.09.52.12.67a1.74,1.74,0,0,0,.84.27,4.68,4.68,0,0,0,1,0l.33,0-.05.32-.45,2.87c-.08.5-.12.93-.25,1.47a9.45,9.45,0,0,1-.6,1.37,38.94,38.94,0,0,1-3.14,4.94c-.29.39-.59.78-.89,1.16a4.36,4.36,0,0,1-1.12,1.06,2.17,2.17,0,0,1-1.58.33,2.33,2.33,0,0,1-.75-.34l-.34-.23-.26-.3a8.19,8.19,0,0,1-1.39-5.72,16,16,0,0,1,.49-2.92l.89-2.77a9.86,9.86,0,0,0-.06-5.57c-.56-1.81-1.59-3.47-2.31-5.31a11,11,0,0,1-.72-2.89,17,17,0,0,0-.31-2.84,10.71,10.71,0,0,0-1.09-2.59,20.86,20.86,0,0,0-1.66-2.32c-1.23-1.48-2.57-2.89-3.79-4.42a28.93,28.93,0,0,1-1.72-2.39,11.12,11.12,0,0,1-.72-1.32,14.05,14.05,0,0,1-.5-1.42,14.76,14.76,0,0,1-.08-5.92,28.26,28.26,0,0,1,1.64-5.64l.56-1.36.3-.66.14-.33.08-.28a11.29,11.29,0,0,0,0-2.78c-.1-1-.23-1.91-.35-2.88a12.29,12.29,0,0,1-.16-3,37.65,37.65,0,0,1,1.64-5.66l0,.14a40,40,0,0,1,1.51-8.73c.38-1.43.92-2.8,1.2-4.18a16.8,16.8,0,0,0,.39-4.24,9.74,9.74,0,0,0-.27-2,2.23,2.23,0,0,0-.15-.42l0,0,0,0,0,0a.23.23,0,0,0,.12,0,.39.39,0,0,0,.32-.06c.07-.06.08-.06.1-.11s0,0,0,0a3.59,3.59,0,0,0,0,.93,2.27,2.27,0,0,0,.07.43l0,.11v.06a.54.54,0,0,1-.24.5.25.25,0,0,1-.09,0h0l-.07,0-.1,0a.76.76,0,0,0-.18.06,5.19,5.19,0,0,0-.84.52,10.8,10.8,0,0,0-1.54,1.38,2.34,2.34,0,0,0-.68,1.64,3,3,0,0,0,.74,1.69,11.29,11.29,0,0,1,.69.93l.1.17a2.82,2.82,0,0,1,.07.31,1.7,1.7,0,0,1,0,.33l-.05.57c-.08.75-.2,1.47-.32,2.2l0,.19-.15.12a12.27,12.27,0,0,0-2.38,2.57,5.23,5.23,0,0,0-.86,3.16,10.19,10.19,0,0,0,.28,1.73,7.71,7.71,0,0,1-1,5.73l.06-.11c-.92,2.13-1.85,4.24-2.95,6.32a15.75,15.75,0,0,1-.92,1.55c-.09.13-.21.27-.32.4l-.05.07-.05.11a2.75,2.75,0,0,0-.16.71,21.78,21.78,0,0,0-.09,3.35l.11,3.47a15.7,15.7,0,0,1-.05,1.8,2.44,2.44,0,0,1-.08.51,1.28,1.28,0,0,1-.1.32.69.69,0,0,1-.11.2.81.81,0,0,1-.23.24,1,1,0,0,1-.21.1l-.06,0h-.05l-.05,0s0,0,0,0a1.38,1.38,0,0,0,.07.53,7.59,7.59,0,0,0,.25.77c.05.15.09.23.15.45a1.5,1.5,0,0,1,0,.74,1.28,1.28,0,0,1-.42.7,1.94,1.94,0,0,1-.52.33c-.32.15-.63.24-.79.32s-.06,0,0,0a.42.42,0,0,0,.07-.1.25.25,0,0,0,0-.07h0a1.37,1.37,0,0,0,0,.27,11.89,11.89,0,0,0,.31,1.58l.11.42-.34.27a42.56,42.56,0,0,0-4.12,3.68,11.25,11.25,0,0,0-.86,1,2.61,2.61,0,0,0-.51.91s0,0,0,0,0,.12,0,.18a2.75,2.75,0,0,1,0,.41,3.83,3.83,0,0,1-.08.83,3.4,3.4,0,0,1-.78,1.61l0,0-.08,0a10.64,10.64,0,0,0-3.32,4.11,26.25,26.25,0,0,0-1.94,5.19,48.27,48.27,0,0,0-1.18,5.49c-.29,1.84-.52,3.73-.63,5.58l0,.39-.34.22a3.44,3.44,0,0,0-1,1.23c-.29.54-.55,1.13-.82,1.73-.52,1.21-1,2.45-1.64,3.66a22,22,0,0,1-2.11,3.52,24.19,24.19,0,0,1-2.8,3,25.68,25.68,0,0,1-3.24,2.51,12.29,12.29,0,0,1-3.87,1.74,3.85,3.85,0,0,1-2.48-.18,4.18,4.18,0,0,1-1-.74,3.16,3.16,0,0,0-.66-.51,3.09,3.09,0,0,0-1.46-.51,2.71,2.71,0,0,0-1.4.27l.31-.32a6.7,6.7,0,0,1-6.08,3,11.89,11.89,0,0,1-3.26-.67l-.79-.34q-.39-.21-.78-.45a5.49,5.49,0,0,1-1.3-1.29c-.68-1-1.07-1.81-1.66-2.53a12.18,12.18,0,0,0-2-1.95,21,21,0,0,0-2.48-1.55,10.19,10.19,0,0,0-2.62-1,9.71,9.71,0,0,0-5.51.35,29.05,29.05,0,0,0-5.31,2.62c-.89.51-1.78,1.05-2.76,1.51a6.64,6.64,0,0,1-3.5.66,7.54,7.54,0,0,1-3.31-1.16,9.17,9.17,0,0,1-2.52-2.33,6.71,6.71,0,0,1-.89-1.61,3.59,3.59,0,0,1-.13-.52,1.88,1.88,0,0,1-.06-.61c0-.11,0-.24,0-.33l0-.17.05-.34a6,6,0,0,0-.29-2.6,34.28,34.28,0,0,0-2.4-5.39,8.4,8.4,0,0,0-.71-1.12,1,1,0,0,0-.68-.38c-.38-.07-1-.12-1.5-.21a15.09,15.09,0,0,1-1.61-.39,15.34,15.34,0,0,1-5.84-3.08,7,7,0,0,1-1.16-1.45,4.89,4.89,0,0,1-.61-1.89c0-.11,0-.41,0-.23s0,.07,0,.11l0-.08-.06-.16-.05-.2-.2-.76-.38-1.5c-.49-2-1-4-1.35-6.07,0-.25-.09-.53-.13-.81l-.07-.78a8.31,8.31,0,0,0-.26-1.32,29.06,29.06,0,0,0-1-2.8l-.12-.33,0,.07a.93.93,0,0,0,.3.31,1.19,1.19,0,0,0,.65.19,1.14,1.14,0,0,0,.58-.19,1.11,1.11,0,0,0,.26-.25c.07-.12,0,0,0,.09l-.11.33a4.45,4.45,0,0,1-.39,1,2.37,2.37,0,0,1-.19.25,1.32,1.32,0,0,1-.54.37,1.28,1.28,0,0,1-.58.08,1.17,1.17,0,0,1-.51-.17,1.67,1.67,0,0,1-.29-.21l-.14-.16a1.66,1.66,0,0,1-.23-.42l0-.07h0s-.15-.16-.5-.24a3.81,3.81,0,0,0-1.12-.1l-.78,0-.39-.71a22.94,22.94,0,0,0-1.16-2A6.39,6.39,0,0,0,188,147.1l-.31-.19a1.32,1.32,0,0,1-.23,0,.54.54,0,0,0-.36.13,3.28,3.28,0,0,0-1,1.41l.06-.27,0,.94c0,.3,0,.6.06.88a2.54,2.54,0,0,0,.58,1.28,2,2,0,0,0,1.21.58,4.74,4.74,0,0,0,1.64-.06l1.08-.25.4,1.06.36.93c.14.29.28.58.44.86a5.18,5.18,0,0,0,1.14,1.34,3.39,3.39,0,0,0,1.46.66,4.52,4.52,0,0,0,.82.05,4.4,4.4,0,0,0,.74-.13l1.73-.55-.05,1.79a7.93,7.93,0,0,0,.09,1.05c.06.4.13.8.21,1.21.15.82.33,1.66.52,2.47l-.09-.25.37.91c.12.31.2.67.29,1a3.56,3.56,0,0,1-.42,2.6,2.9,2.9,0,0,1-1.14,1,2.7,2.7,0,0,1-.61.23,3.15,3.15,0,0,1-.58.12,6.4,6.4,0,0,1-2.14-.06l-.68-.12-.27-.72a13.18,13.18,0,0,0-2.27-3.55,44.51,44.51,0,0,0-3.16-3.3c-1.13-1.09-2.25-2-3.48-3.24l-.26-.28a2.31,2.31,0,0,1-.27-.4,1.63,1.63,0,0,1-.11-.23c0-.06,0,0,0,0s-.1-.21-.18-.34c-.17-.31-.36-.64-.56-1-.4-.65-.82-1.31-1.23-2l.07.1c-1.37-1.74-2.67-3.49-3.92-5.33a23.56,23.56,0,0,1-1.76-3,4.89,4.89,0,0,1-.37-1.09l-.07-.34a1.44,1.44,0,0,0-.07-.23,5.9,5.9,0,0,0-.61-1.15c-.54-.82-1.21-1.64-1.89-2.53a12.5,12.5,0,0,1-1-1.52c-.14-.25-.24-.44-.35-.62l-.13-.19,0,0,.13.09.12.05a1,1,0,0,0,.26.07,1.18,1.18,0,0,0,.7-.12,1.05,1.05,0,0,0,.39-.32c.11-.14.11-.2.11-.2s0-.11,0,.06,0,.47,0,.73l0,1.59c0,1.06.08,2.14.14,3.19l.06.78c0,.32,0,.37,0,.33s-.11-.11-.09-.1a.74.74,0,0,0,.3.05,4.57,4.57,0,0,0,.63,0c.26,0,.47,0,1,0l.24,0h.06l.13,0a1.25,1.25,0,0,1,.25.09,1,1,0,0,1,.33.19,2.11,2.11,0,0,1,.23.19c.19.19.24.26.37.4l.55.66a64.27,64.27,0,0,1,3.91,5.39c.6,1,1.17,1.91,1.7,2.93.27.52.51,1.06.74,1.63.1.3.2.62.29.92l.21.72a21.34,21.34,0,0,0,2.62,5.44l-.61-.49a4.9,4.9,0,0,1,.72.4,6.47,6.47,0,0,1,.57.42,9.62,9.62,0,0,1,1,.91,11.71,11.71,0,0,1,1.55,2.08,17,17,0,0,1,1.87,4.62,8.8,8.8,0,0,1,0,5.39,5.23,5.23,0,0,1-.79,1.39c-.19.2-.39.4-.59.58a4.42,4.42,0,0,1-.67.46,6.11,6.11,0,0,1-2.89.79,8.19,8.19,0,0,1-2.78-.46,7.2,7.2,0,0,1-1.32-.63l-.64-.47-.45-.41a28.17,28.17,0,0,1-3.25-3.58,43.8,43.8,0,0,1-4.8-8.18,70.74,70.74,0,0,1-3.24-8.77,18.92,18.92,0,0,0-1.63-3.88,4.72,4.72,0,0,0-1.11-1.35,1.74,1.74,0,0,0-1.18-.4,6,6,0,0,0-.91.1,6.43,6.43,0,0,1-1.49.12,2.76,2.76,0,0,1-2.07-1.1,5,5,0,0,1-.72-1.57l-.26-1.14a5.46,5.46,0,0,0-.28-.89,3.81,3.81,0,0,0-.88-1.36,4,4,0,0,0-1.48-.81,8.23,8.23,0,0,1-1.31-.56,2.87,2.87,0,0,1-.46-.33,3,3,0,0,1-.46-.54,3.28,3.28,0,0,1-.3-.7,4.66,4.66,0,0,1-.08-.64v-.2a.62.62,0,0,0,0-.13,1.45,1.45,0,0,0-.07-.26,3,3,0,0,0-.36-.59,4.94,4.94,0,0,0-1.28-1.09L154,138l-.2-.5a22.16,22.16,0,0,0-1-2.17,10.31,10.31,0,0,0-1.21-1.86,2.65,2.65,0,0,0-.3-.29.48.48,0,0,0-.12-.1l0,0-.11-.07a4.56,4.56,0,0,1-1.43-1.21,6,6,0,0,1-.86-1.5,6.8,6.8,0,0,1-.43-1.63l-.1-.69.54-.55a1.8,1.8,0,0,0,.47-.78,1.24,1.24,0,0,0,0-.43,1.62,1.62,0,0,0,0-.22s-.05-.18,0-.11l.92.89a5.44,5.44,0,0,1-1.38-.7,3.92,3.92,0,0,1-1.7-3,5.72,5.72,0,0,1,0-.83,4.62,4.62,0,0,1,.19-.89l0-.06.06-.1a12,12,0,0,0,.95-4.31,26.75,26.75,0,0,0-.15-4.8,47.72,47.72,0,0,0-.77-4.84c-.33-1.6-.73-3.23-1.18-4.76l.25.49c-1-1.26-1.85-2.51-2.71-3.82A40,40,0,0,1,141.31,95a15.84,15.84,0,0,1-1-2.32A6.82,6.82,0,0,1,140,91.3a3.9,3.9,0,0,1,.18-1.88,2.6,2.6,0,0,1,.73-1l.26-.21.2-.13.2-.12a2.49,2.49,0,0,0,.29-.21l0,0,0,0a1,1,0,0,0-.21.61,1.43,1.43,0,0,0,.21.81l.12.15.09.09.15.11a.81.81,0,0,0,.18.09,1.23,1.23,0,0,0-.29,0,5.58,5.58,0,0,0-.91,0l-1.09.09-.45-1a89.41,89.41,0,0,0-5.55-10.26c-2.06-3.33-4.26-6.59-6.56-9.76-1.16-1.58-2.34-3.15-3.56-4.67-.6-.77-1.23-1.51-1.85-2.23-.32-.34-.64-.72-.94-1a3.84,3.84,0,0,0-.41-.38,1.36,1.36,0,0,1-.12-.12l-.45-.31A9.15,9.15,0,0,1,119,58.65c-.35-.41-.69-.82-1-1.23-.63-.81-1.22-1.64-1.79-2.47-1.15-1.66-2.23-3.33-3.29-5.05l-.13-.21-.06-.28a77.79,77.79,0,0,0-3.24-10.69,33.31,33.31,0,0,0-5.21-9.52,11.59,11.59,0,0,0-1.82-1.7,6,6,0,0,0-2-1c-.18,0-.34-.07-.52-.1l-.59,0h-.53l-.46.08a1.06,1.06,0,0,0-.88.8,5.12,5.12,0,0,0,0,2.11,17.31,17.31,0,0,0,.69,2.5,31.75,31.75,0,0,0,2.29,4.91l.22.4v.47A11,11,0,0,0,101,41a3.75,3.75,0,0,0,.6,1.22,1.08,1.08,0,0,0,.17.19.55.55,0,0,0,.18.14l.08.06.25.14c.17.11.36.21.51.32A20.75,20.75,0,0,1,106,45.85c.94,1,1.81,2,2.67,3l.06.08,0,.09a44.21,44.21,0,0,1,3.17,7c.88,2.37,1.62,4.77,2.3,7.18s1.31,4.82,1.87,7.25,1.1,4.86,1.57,7.33l-.09-.31a11.08,11.08,0,0,1,.63,2.34,5.82,5.82,0,0,1,0,1.4,4.37,4.37,0,0,1-.17.67,5.06,5.06,0,0,1-.24.46,5.14,5.14,0,0,1-.48.63,10.24,10.24,0,0,1-1.87,1.52,21,21,0,0,1-1.89,1.13l-.33.18h-.39c-2.25,0-4.72,0-6.63.08a12.76,12.76,0,0,0-5.6,2.16A22.41,22.41,0,0,0,96,92.36a30.33,30.33,0,0,0-3.59,5.3l.1-.26a21.63,21.63,0,0,0-.66,5.62,17.23,17.23,0,0,0,.92,5.52,15,15,0,0,0,2.83,4.79,22.79,22.79,0,0,0,4.09,4,16.83,16.83,0,0,0,10.54,3.32,24.05,24.05,0,0,0,5.67-.69,12.57,12.57,0,0,0,4.78-2.52,13.74,13.74,0,0,0,3.31-4.36,17.73,17.73,0,0,0,1-2.63l.12-.36.06-.2a2.39,2.39,0,0,1,.46-.81l.7-.61.35-.3.42-.26a5.51,5.51,0,0,1,.86-.47,5.57,5.57,0,0,1,4.13-.23,8,8,0,0,1,3.15,2.1,9.76,9.76,0,0,1,1.14,1.41,3.89,3.89,0,0,1,.25.4,4,4,0,0,1,.26.47c0,.11.07.14.13.31a4.86,4.86,0,0,1,.14.59.8.8,0,0,0-.06-.37A.75.75,0,0,0,137,112l.05.06c.47.64,1.19,1.46,1.85,2.19,1.34,1.51,2.74,3,4.14,4.48l4,4.12a1.07,1.07,0,0,0-.46-.14h-.22a1.82,1.82,0,0,1,.64.16,1.67,1.67,0,0,1,.56.4l.06.07,0,0,.09.13a4.37,4.37,0,0,1,.28.4l.44.7c.28.46.54.91.8,1.38.51.92,1,1.85,1.45,2.85a12.46,12.46,0,0,1,.63,1.62l.13.52c0,.11,0,.25.05.38l0,.3a1.35,1.35,0,0,0,.06.37,8.68,8.68,0,0,0,1.11,2.25l-1.14-.65a3.19,3.19,0,0,1,1.8.83,6,6,0,0,1,.91,1,16.66,16.66,0,0,1,1.19,1.94l.94,1.81c.07.12.15.27.21.35l.06.09,0,0h0l.09.1a4.86,4.86,0,0,1,.86,1.28,22.83,22.83,0,0,1,1.43,4.19c.36,1.39.64,2.78.87,4.17.11.7.22,1.39.31,2.09l.07.52.08.42a4.78,4.78,0,0,0,.2.83,7.9,7.9,0,0,0,1.73,3,13.84,13.84,0,0,0,2.86,2.36c.54.35,1.11.68,1.7,1,.31.17.62.35,1,.58a3.25,3.25,0,0,1,.34.25l.17.14a2.84,2.84,0,0,1,.37.47l.16.32,0,.06a6.64,6.64,0,0,0,.48.59l.72.78c.08.09.14.15.24.28a1.9,1.9,0,0,1,.44,1,1.6,1.6,0,0,1-.16.95c-.06.11,0,0,0,0l0-.09a2,2,0,0,0,.08-.22,1.07,1.07,0,0,0,0-.47c0-.2,0-.1,0-.11v0l0,.06c.07.22.21.55.34.84.53,1.2,1.14,2.42,1.76,3.6.32.59.64,1.17,1,1.72.17.29.34.55.51.8a3,3,0,0,0,.43.56s.06.07,0,0a.62.62,0,0,0-.19-.12l-.1,0s-.1,0,0,0a2.13,2.13,0,0,1,.35.14,2.2,2.2,0,0,1,.46.27c.1.08.23.18.3.25a8.72,8.72,0,0,1,.86.86c.51.56.95,1.11,1.38,1.68.87,1.14,1.68,2.29,2.44,3.51.19.3.38.62.57.94s.18.34.27.54a5.45,5.45,0,0,1,.27.69,16.08,16.08,0,0,1,.46,2.25,82.59,82.59,0,0,1,.6,8.4l-.09-.46a7.11,7.11,0,0,1,.31,1.46,9.05,9.05,0,0,1,.07,1.37,9.84,9.84,0,0,1-.44,2.7,11.24,11.24,0,0,1-2.76,4.53,18.26,18.26,0,0,1-1.95,1.7,20.28,20.28,0,0,1-2.16,1.36,7.63,7.63,0,0,1-2.73.89,5.06,5.06,0,0,1-3.11-.68,17.43,17.43,0,0,1-2-1.52,7,7,0,0,0-1.63-1l-.26-.11-.32-.14a5.82,5.82,0,0,1-.65-.34,4.06,4.06,0,0,1-1.33-1.16,2.72,2.72,0,0,1-.48-1.09,2.75,2.75,0,0,1,.05-1.22,3.82,3.82,0,0,1,.35-.87l.17-.28,0,0a.52.52,0,0,0-.06.15l0,.08a1.44,1.44,0,0,0,0,.44,1.5,1.5,0,0,0,.15.48c0,.06,0,0,0,0l-.07-.15-.08-.18-.12-.31-.21-.6q-.19-.58-.36-1.2a10.65,10.65,0,0,1-.43-2.66,3.34,3.34,0,0,1,.44-1.91,2.14,2.14,0,0,1,.52-.59l.24-.18.1-.1a1.11,1.11,0,0,0,.15-.47,2.57,2.57,0,0,0,0-.68l1.74,1.13a3.44,3.44,0,0,1-.6.06,3.19,3.19,0,0,1-.45,0,3.91,3.91,0,0,1-.8-.16,5.73,5.73,0,0,1-1.38-.58,9.53,9.53,0,0,1-2.14-1.68,17.76,17.76,0,0,1-1.61-2,4.34,4.34,0,0,0-1.18-1.17,1.45,1.45,0,0,0-1.15-.13,2.92,2.92,0,0,0-1.24.84,2.6,2.6,0,0,0-.38.54s0-.07,0,0l-.06.3-.13.59-.53,2.37,0-.17a12.92,12.92,0,0,0,1.15,7.89,9.6,9.6,0,0,0,2.54,2.95,8.87,8.87,0,0,0,.81.55l.42.24.22.11.11,0,.06,0a2.16,2.16,0,0,1,.22.14,1.82,1.82,0,0,1,.45.41,3.13,3.13,0,0,1,.21.34,3.31,3.31,0,0,1,.21.55,5.38,5.38,0,0,1,.13.77c0,.47,0,.87,0,1.27a41.22,41.22,0,0,0,.05,4.35,5.34,5.34,0,0,1-.61,3,8.55,8.55,0,0,1-1.6,2.14,14.63,14.63,0,0,1-1.92,1.61,17.74,17.74,0,0,0-1.75,1.23,34.94,34.94,0,0,0-3.11,3l.36-.81a7.36,7.36,0,0,1-.29,1.31,10.28,10.28,0,0,1-.42,1.14,13.4,13.4,0,0,1-1.13,2.08,16.7,16.7,0,0,1-3.06,3.47,20.07,20.07,0,0,1-3.8,2.6,7.8,7.8,0,0,1-1.14.48l-.6.2-.65.13a5.49,5.49,0,0,1-2.77-.18c-1.83-.62-2.94-2.07-3.81-2.77a2,2,0,0,0-.28-.22l-.13-.08-.25-.13c-.32-.17-.64-.34-1-.57a3.17,3.17,0,0,1-1.28-1.31A2.67,2.67,0,0,1,131,223a4.79,4.79,0,0,1,.07-.75,2.25,2.25,0,0,0,.08-.65.35.35,0,0,0-.11-.23,2.2,2.2,0,0,0-1.13-.51c-.57-.14-1-.09-2-.23a17.29,17.29,0,0,1-2.26-.59,59.59,59.59,0,0,1-8-3.49c-.78-.45-1.28-.82-1.9-1.23l-1.76-1.23c-1.17-.83-2.32-1.67-3.47-2.53s-2.28-1.75-3.4-2.69c-.56-.47-1.11-.95-1.66-1.5-.27-.25-.55-.57-.83-.89s-.4-.51-.64-.76a59.45,59.45,0,0,0-6.09-5.62l.52.26a20.4,20.4,0,0,1-4.41-1.85,17.7,17.7,0,0,1-3.81-2.9,13.23,13.23,0,0,1-2.75-4,13,13,0,0,0-2-3.44A4.28,4.28,0,0,0,84,187.13a3,3,0,0,0-.75-.26l-.45-.07c-.18,0-.38,0-.72-.12a2.17,2.17,0,0,1-.57-.25l-.23-.15-.12-.1c-.18-.14-.34-.27-.48-.4-.31-.26-.58-.51-.86-.77l-1.63-1.54L75,180.37l-.4-.39-.19-.18-.09-.1s.06.06.05,0a1.42,1.42,0,0,1-.3-.3,1.73,1.73,0,0,1-.16-.25l0-.11-.07-.18-.1-.27-.19-.51c-.13-.32-.26-.63-.39-.9a4.23,4.23,0,0,0-.29-.49l.08.06a1.29,1.29,0,0,0,.2.06.41.41,0,0,0,.16,0H73a4.37,4.37,0,0,1-.81-.15,7.81,7.81,0,0,1-1.21-.47,8,8,0,0,1-2.23-1.43,2.5,2.5,0,0,1-.62-.94,2.18,2.18,0,0,1-.09-.51s0,0,0,.07,0,0,0,0a3.59,3.59,0,0,0-.42-.71,9.45,9.45,0,0,0-1.27-1.47L66,171s-.1-.07-.12-.07,0,0,.09,0,.07,0,.06,0l-.21,0a2.24,2.24,0,0,1-.36-.13,3,3,0,0,1-.43-.26,4.1,4.1,0,0,1-.57-.48,7.83,7.83,0,0,1-1.55-2.12,3.08,3.08,0,0,1-.39-1.78,2.34,2.34,0,0,1,.26-.73.56.56,0,0,0-.08.21c0,.13,0,.11,0,.06a5.71,5.71,0,0,0-1-1.39c-.46-.5-1-1-1.51-1.5l-.2-.19-.15-.13c-.11-.1-.18-.13-.22-.17s0,0,.07,0a.74.74,0,0,0,.32,0c.14-.07.18-.07.24-.15s0,0,0,0-.26.49-.44.84a7.12,7.12,0,0,1-.67,1.13,6,6,0,0,1-.47.55c-.15.15-.43.4-.39.38s0,0,0,0a.1.1,0,0,0,0-.1s0-.05,0-.07a1.58,1.58,0,0,0,.27.32,4,4,0,0,0,.71.47,6.84,6.84,0,0,0,1.74.68c.14,0,.3.07.42.08l.6.07a4,4,0,0,1,1.46.54,4.24,4.24,0,0,1,1.13,1,4.61,4.61,0,0,1,.76,1.31l.27.69-.58.57a2.93,2.93,0,0,0-.36.43c-.12.11-.11.32-.09,0a.84.84,0,0,0-.34-.58s-.12,0-.1,0h.28a4.47,4.47,0,0,1,.78.17,5.8,5.8,0,0,1,1.7,1.16A16,16,0,0,1,68.11,173a48.54,48.54,0,0,1,3.94,5.39l-.25-.28c1,.83,2.08,1.65,3.15,2.4.53.37,1.07.74,1.6,1a5.13,5.13,0,0,0,.72.35,1,1,0,0,0,.33.08,3,3,0,0,1,.72.23,5.76,5.76,0,0,1,2,1.55l.65.75.14.18a1.38,1.38,0,0,1,.28.67,1.65,1.65,0,0,1-.14.84c-.13.27-.21.4-.27.52a1.88,1.88,0,0,0-.21,1.27,4.09,4.09,0,0,0,.55,1.46,7.21,7.21,0,0,0,2.45,2.43,4.65,4.65,0,0,0,1.47.61,1.84,1.84,0,0,0,.57,0l.09,0h0l.14,0,.29-.08a2.73,2.73,0,0,1,.93.05,6.6,6.6,0,0,1,2.19,1.13,20.23,20.23,0,0,1,1.65,1.36c1,.94,2,1.93,2.94,2.94,1.77,2,3.69,3.88,5.62,5.68a11,11,0,0,0,2.94,2.2,14.45,14.45,0,0,1,1.9,1.13q.87.6,1.68,1.2l1.63,1.2c.52.38,1.12.81,1.52,1,0,0,0,0,0,0s-.12,0,0,0a2.5,2.5,0,0,1,.51.22l.49.3.87.59,1.66,1.19c2.19,1.61,4.34,3.24,6.49,4.89l.1.08.08.11c.7.88,1.44,1.77,2.19,2.59a13.23,13.23,0,0,0,1.14,1.12l.25.2s.16.05-.06,0a.82.82,0,0,0-.32,0c-.25.11,0,0,.06,0a1.36,1.36,0,0,1,.32-.08l.19,0a5.53,5.53,0,0,1,.63,0,29.43,29.43,0,0,1,3.52.92c.27.07.55.16.79.21l.25.06s-.05,0,0,0l.32,0,.28.07.12,0a17.93,17.93,0,0,1,1.69.81,61.55,61.55,0,0,1,6.05,3.7,18,18,0,0,1,1.45,1.11,8.74,8.74,0,0,1,.73.67l.38.48a3.66,3.66,0,0,1,.28.56,3.34,3.34,0,0,1,0,2.41,5.16,5.16,0,0,1-1.15,1.83l.2-.3c-.53,1.23-1,2.5-1.49,3.76-.22.63-.42,1.26-.59,1.88-.08.31-.15.62-.2.91a2,2,0,0,0,0,.4v.21a1.56,1.56,0,0,1-.1.59,1.79,1.79,0,0,1-.65.86,2.51,2.51,0,0,1-.7.37,5.45,5.45,0,0,1-1.22.28,12.72,12.72,0,0,1-2.21.07c-.72,0-1.43-.08-2.13-.15l-1.07-.14a2.69,2.69,0,0,1-.77-.23,2.78,2.78,0,0,1-.63-.43,5.48,5.48,0,0,1-1.4-2.07c-.15-.4-.13-.16.11-.13s-.15,0-.4.19-.57.32-1,.5l-.08,0s0,0,0-.05,0-.08,0-.07.06.11,0,0a.23.23,0,0,0-.16,0s0,0,0,0a2,2,0,0,1,.39-.12l.29,0a4.17,4.17,0,0,1,1.32.32,10.44,10.44,0,0,1,1,.44c.65.31,1.27.64,1.88,1,1.22.69,2.4,1.4,3.58,2.16l.39.25,0,.45a14,14,0,0,1-1.11,6,29,29,0,0,1-2.71,5.22,26.83,26.83,0,0,1-1.74,2.38,11.88,11.88,0,0,1-2.2,2.16,4,4,0,0,1-.8.45,2,2,0,0,1-.56.16,1.55,1.55,0,0,1-.38,0l-.2,0h0a3.16,3.16,0,0,0-1,.2,19.11,19.11,0,0,0-2.48,1.09,43.38,43.38,0,0,0-4.77,2.87,21.6,21.6,0,0,0-2.15,1.68,3.85,3.85,0,0,0-.7.8,0,0,0,0,0,0-.05s0-.24,0-.2a3.57,3.57,0,0,1,.06.65c0,.28-.07.59-.13.83a43.73,43.73,0,0,1-1.85,5.53c-.69,1.79-1.41,3.55-2.17,5.31l.07-.24a20.82,20.82,0,0,1-1.41,5.12,9.59,9.59,0,0,1-1.47,2.37,4.11,4.11,0,0,1-2.7,1.48,16.4,16.4,0,0,1-5.31-.73,34.87,34.87,0,0,1-4.89-1.77l.38.08c-3.52.12-7,.2-10.53.25s-7,.06-10.56-.09q-1.32,0-2.67-.18c-.45,0-.9-.12-1.39-.22l-.4-.12a2.69,2.69,0,0,1-.48-.24,2,2,0,0,0-.44-.23,13.48,13.48,0,0,0-4.84-.81,10.09,10.09,0,0,0-2.42.25,2.42,2.42,0,0,0-1.67,1,6.49,6.49,0,0,1-2,2.17,8.6,8.6,0,0,1-2.61,1.24l-.12,0-.14,0c-1.85-.21-3.72-.39-5.57-.47a17.27,17.27,0,0,0-2.7,0,2.6,2.6,0,0,0-.46.09l.07-.05,0-.05,0,.05-.13.13a1.56,1.56,0,0,1-.47.33,8.07,8.07,0,0,1-1.51.5,44.77,44.77,0,0,1-5.68.78c-.24,0-.45.05-.77.05a5.05,5.05,0,0,1-.81-.08,13,13,0,0,1-1.46-.34c-.93-.28-1.82-.61-2.73-1l.32.06c-.82.06-1.66.15-2.48.29-.4.07-.8.15-1.18.25a2.53,2.53,0,0,0-.86.35.36.36,0,0,0,.06-.19.63.63,0,0,0,0-.17,1.29,1.29,0,0,0,.33.24,4.86,4.86,0,0,0,1,.48,10.74,10.74,0,0,0,2.34.52,8.67,8.67,0,0,0,2.34,0l.19,0a1.85,1.85,0,0,1,.46-.12,6.35,6.35,0,0,1,.72-.06c.45,0,.88,0,1.32,0,1.73,0,3.44.14,5.15.28h.16l.16.09a7.9,7.9,0,0,0,3.09,1.23,2.6,2.6,0,0,0,1.43-.18c.2-.1.33-.21.71-.45a3.7,3.7,0,0,1,1-.44,12.09,12.09,0,0,1,3.84-.34,27.31,27.31,0,0,1,3.72.41l.14,0,.1.08a16.63,16.63,0,0,1,3,2.77,8.41,8.41,0,0,1,1.93,3.71,4.63,4.63,0,0,1,.07,1.12c0,.37,0,.64,0,1a13.09,13.09,0,0,0,0,1.88,15.51,15.51,0,0,0,.73,3.67l-.25-.3a15.61,15.61,0,0,0,3.27,1.52,5.15,5.15,0,0,0,3.31.06,6.91,6.91,0,0,0,2.66-2.18,16,16,0,0,1,1.34-1.42l.41-.34.26-.24a1.58,1.58,0,0,0,.34-.59,4.19,4.19,0,0,0-.81-3.08,7.19,7.19,0,0,0-1.08-1.35,2.4,2.4,0,0,0-.29-.23.63.63,0,0,0-.16-.1,1.82,1.82,0,0,1-.29-.21,3.43,3.43,0,0,1-.7-.87,7.78,7.78,0,0,1-.76-1.9,4.93,4.93,0,0,1-.14-1.05,1.79,1.79,0,0,1,.41-1.28,3,3,0,0,1,.45-.33l.34-.27c.23-.19.45-.4.67-.6.45-.42.88-.87,1.29-1.32l.17-.18h.24c3.1,0,6.2,0,9.31.07.78,0,1.55,0,2.35.11.19,0,.41.05.62.07a2.32,2.32,0,0,1,.49.17h0l.11,0a10.08,10.08,0,0,0,1.07.22c1.5.24,3,.4,4.57.55l.26,0,.14.21a22.37,22.37,0,0,0,1.5,2A7.84,7.84,0,0,0,93,294.93a1.54,1.54,0,0,0,.42.17l.22,0a2.51,2.51,0,0,1,.49.08,5.51,5.51,0,0,1,1.25.7,22,22,0,0,1,2,1.67c1.29,1.15,2.5,2.36,3.74,3.48a9.24,9.24,0,0,0,.94.78.91.91,0,0,0,.19.13l.08.05a1.61,1.61,0,0,1,.28.17,1.78,1.78,0,0,1,.52.73,11.25,11.25,0,0,1,.63,2.61c.26,1.71.41,3.41.59,5.1.09.84.17,1.71.32,2.49a9.36,9.36,0,0,0,.77,2.29,7,7,0,0,0,3.17,3.39,3,3,0,0,0,2.14.06l1.11-.53a4.06,4.06,0,0,1,.66-.25,3.41,3.41,0,0,1,.69-.15,9.07,9.07,0,0,1,5.2,1.12c.4.18.78.36,1.15.51a3.23,3.23,0,0,0,.53.17.44.44,0,0,0,.21,0h.12a1.57,1.57,0,0,1,.33,0,5.28,5.28,0,0,1,1.26.7c.36.26.7.52,1,.79a84.75,84.75,0,0,1,7.53,7,31,31,0,0,1,3.36,4,3.8,3.8,0,0,1,.34.67l.06.23a1.53,1.53,0,0,1,0,.37,1.28,1.28,0,0,1,0,.19,6.68,6.68,0,0,0,.21,1.13c.2.8.46,1.61.73,2.41,1.1,3.2,2.36,6.37,3.66,9.51l-.06-.1a28.13,28.13,0,0,1,4.1,8.24,12.73,12.73,0,0,1,.48,4.65,15.71,15.71,0,0,1-1.21,4.49c-1.2,2.85-2.95,5.37-4.34,8a36.92,36.92,0,0,0-1.75,4.12c-.54,1.42-1.1,2.83-1.71,4.22a45.32,45.32,0,0,1-4.38,8,35,35,0,0,1-6.24,6.68A133.26,133.26,0,0,1,109,405.7l-1.93,1.2A12.11,12.11,0,0,1,105,408a15.8,15.8,0,0,1-4.57.92c-1.54.1-3.07.05-4.58,0a26.19,26.19,0,0,0-4.44.07,7.19,7.19,0,0,0-3.71,1.92,13.31,13.31,0,0,0-2.77,3.35,5.94,5.94,0,0,0-.78,1.92c0,.16,0,.3,0,.45s0,.18.1.45a4.1,4.1,0,0,1,.11,1.29,12.6,12.6,0,0,1-1.37,4.51,10.53,10.53,0,0,1-.59,1,3.56,3.56,0,0,1-.86,1,11.8,11.8,0,0,1-2.13,1.07l-2.11.85a15.25,15.25,0,0,0-2,.89c-.09,0-.09.07-.15.1l-.18.19-.39.4-.78.82-1.54,1.66q-1.53,1.67-3,3.37a34.08,34.08,0,0,0-2.72,3.51c-.09.15-.17.31-.24.45a.6.6,0,0,0-.07.18l0,.06s0,0,0,0c0-.2-.27-.28-.26-.27h.16c.11,0,.3-.09.45-.12a15.85,15.85,0,0,0,2-.91c2.64-1.39,5.19-3,7.7-4.66l-.09.07,6.13-6.22A7,7,0,0,1,84.29,425c.68-.31,1.37-.58,2.06-.83,1.39-.51,2.8-.95,4.22-1.32s2.94-.59,4.16-1.08a15.58,15.58,0,0,0,3.61-2.13,37,37,0,0,0,6-6.07l.16-.2.26,0a11.53,11.53,0,0,0,3.08-.67,11.81,11.81,0,0,0,2.8-1.45,15.45,15.45,0,0,0,2.41-2.09A15.27,15.27,0,0,0,115,406.6l.14-.24.28-.06a12.14,12.14,0,0,0,5-2.67,27.44,27.44,0,0,0,2.19-2l1-1.08.53-.56.16-.15a.85.85,0,0,1,.54-.21c.15,0,0,0,0,0l-.13,0,.25-.11a16.69,16.69,0,0,0,4.5-3.62c.34-.36.64-.74,1-1.12s.59-.77,1-1.2a14.61,14.61,0,0,1,2.4-2.08,72.49,72.49,0,0,1,10.75-5.79c1.83-.85,3.7-1.66,5.47-2.54A12.48,12.48,0,0,1,153,382c1.08-.24,2-.28,2.95-.55a15.5,15.5,0,0,0,2.69-1c.9-.43,1.69-.93,2.69-1.4a21.77,21.77,0,0,1,6-1.73,33.58,33.58,0,0,1,6.17-.35,25.57,25.57,0,0,1,6.17.91,9.11,9.11,0,0,1,3,1.41,17.65,17.65,0,0,1,2.25,2.24c1.35,1.55,2.56,3.19,3.78,4.79l.92,1.17c.15.19.3.38.46.55a2.73,2.73,0,0,0,.37.36s0,0,0,0h0a.47.47,0,0,0-.17,0h.14a1.17,1.17,0,0,1,.22,0,2.69,2.69,0,0,1,.5.16,6.7,6.7,0,0,1,.76.36c.47.25.92.52,1.36.8a17.75,17.75,0,0,1,2.55,1.9,2.6,2.6,0,0,1,.68.87,1.08,1.08,0,0,1,0,.86.88.88,0,0,1-.18.25c-.07.07-.2.16-.16.14h0l-.07.09a2,2,0,0,0-.21,1l-.36-.66a4.62,4.62,0,0,1,1.13,1.12,2.14,2.14,0,0,1,.39,1,2.42,2.42,0,0,1,0,.52c0,.14,0,.25-.06.37-.17.91-.39,1.75-.63,2.6a26.76,26.76,0,0,1-1.89,5,2.74,2.74,0,0,1-.58.74c-.21.18-.14.14-.19.19a1.67,1.67,0,0,0-.15.17,10.39,10.39,0,0,0-.7,1c-.46.69-.9,1.43-1.33,2.16-.86,1.47-1.67,3-2.42,4.51-.38.76-.73,1.53-1,2.3a10.94,10.94,0,0,0-.4,1.13,2.9,2.9,0,0,0-.13,1c0,1.33,1.09,2.61,2.15,4,.26.34.53.7.78,1.07s.18.21.27.24a1.73,1.73,0,0,0,.71-.33,5.66,5.66,0,0,0,.86-.73,23.49,23.49,0,0,0,3-3.93l-.11.24a11.86,11.86,0,0,1,1.57-3.24,7.09,7.09,0,0,1,2.83-2.49,5.48,5.48,0,0,1,3.88-.16c.57.16,1.05.34,1.56.47a4.29,4.29,0,0,0,1.24.22c.07,0-.09.07,0,0s.23-.39.39-.65a5.61,5.61,0,0,1,1.28-1.46,7.68,7.68,0,0,1,.75-.56c.3-.19.38-.29.58-.42a4.78,4.78,0,0,0,.45-.45,5.07,5.07,0,0,0,.36-.54,8.24,8.24,0,0,0,.22-5.67l-.11-.43.19-.33a12.88,12.88,0,0,1,2.62-3.43,8.62,8.62,0,0,1,3.95-2.05A10.87,10.87,0,0,1,219,397a8.36,8.36,0,0,0,1.73-.08,2.77,2.77,0,0,1,.52-.07l.33,0a4.69,4.69,0,0,1,.59.08c.38.06.71.16,1.06.23.67.18,1.33.39,2,.6a57.31,57.31,0,0,1,7.48,3.18,36.4,36.4,0,0,1,3.55,2.07,9.59,9.59,0,0,0,3.3,1.33,30.87,30.87,0,0,0,7.66.33c2.62-.14,5.25-.41,7.94-.59.67-.05,1.34-.07,2-.1l2,0a14.44,14.44,0,0,0,3.67-.49,10.58,10.58,0,0,0,3.25-1.5,11.56,11.56,0,0,0,1.41-1.16c.25-.22.45-.44.79-.72a2.1,2.1,0,0,1,.81-.45,1.53,1.53,0,0,1,.38-.09l.33-.05a18.17,18.17,0,0,1,4.27.2,22.5,22.5,0,0,1,4.08,1,14.06,14.06,0,0,1,3.84,2,9.89,9.89,0,0,1,.87.73l.69.6a10.85,10.85,0,0,0,1.49,1,34.18,34.18,0,0,0,7.07,3c1.24.39,2.5.73,3.76,1q.94.22,1.89.39c.3,0,.62.1.92.13l.43,0c.14,0,.23,0,.35,0h.33l.41,0a4.91,4.91,0,0,1,.71.18,6.35,6.35,0,0,1,1.14.55,13.07,13.07,0,0,1,1.75,1.36c.52.48,1,1,1.47,1.44a7.64,7.64,0,0,0,.61.59s.07.07,0,0-.18-.09-.14-.06a1.58,1.58,0,0,1,.54.35l.15.19a1.08,1.08,0,0,1,.16.28,4.37,4.37,0,0,1,.25.65,41.39,41.39,0,0,1,.84,4.06c.21,1.32.44,2.65.59,4a32.21,32.21,0,0,0,.7,3.77,6.17,6.17,0,0,0,.54,1.5c0,.08.07.06-.07,0a.83.83,0,0,0-.47-.11.75.75,0,0,0-.24,0c-.07,0-.15.08-.16.07s-.06.06,0,0a1.54,1.54,0,0,0,.15-.29,4,4,0,0,0,.24-3,4.58,4.58,0,0,0-.73-1.4,6.67,6.67,0,0,0-1.1-1.14l-.33-.24-.12-.32a26,26,0,0,1-1.27-4.23,8.69,8.69,0,0,1-.15-1.21,3,3,0,0,1,.34-1.72,2,2,0,0,1,.57-.6,1.84,1.84,0,0,1,.4-.19l.07,0h0l.1-.07a2.79,2.79,0,0,0,.45-.52,9.08,9.08,0,0,0,.82-1.62c.12-.29.23-.58.33-.89s.26-.74.42-1.1a6,6,0,0,1,1.5-2.2,2.47,2.47,0,0,1,.9-.48,2,2,0,0,1,1.31.05,2.39,2.39,0,0,1,.91.62,3,3,0,0,1,.51.77l-.56-.6a4.2,4.2,0,0,0,.52.23.82.82,0,0,0,.14,0h-.07s-.14,0-.2.06a.86.86,0,0,0-.43.44c0,.06,0,.11,0,.1h0a1.13,1.13,0,0,0-.08-.36l1,.79a3,3,0,0,1-.82-.28,3.09,3.09,0,0,1-1.51-1.76,3.25,3.25,0,0,1-.15-1.58,3.73,3.73,0,0,1,.6-1.33,7.9,7.9,0,0,1,1.55-1.6,13.87,13.87,0,0,1,1.69-1.2l.37-.23.47.07,1.64.2.8.06h.49l-.12,0-.11.06a.83.83,0,0,0-.15.11l-.08.07-.13.17a1.18,1.18,0,0,0-.17.4,1.22,1.22,0,0,0,0,.43,1.11,1.11,0,0,0,.25.59l0,0a2.05,2.05,0,0,1-.57-1,3.38,3.38,0,0,1,0-1.42,8.24,8.24,0,0,1,.67-2l.11-.23.19-.16a16.52,16.52,0,0,1,5.82-2.86,47.05,47.05,0,0,1,6-1.3c1-.16,2-.28,3-.39l1.49-.16h.1a1.78,1.78,0,0,1,.26,0,2,2,0,0,1,1.15.23,2.48,2.48,0,0,1,1,1.14,4.76,4.76,0,0,1,.33.93c.05.15.07.29.11.43s0,0,0,.05,0,0,0,0a.71.71,0,0,0-.3-.27.86.86,0,0,0-.6-.08c-.23.08-.14.08-.16.08s0,0,0,.1a.47.47,0,0,0,0,.21.9.9,0,0,0,.12.36.61.61,0,0,0,.14.17.57.57,0,0,0,.11.11l.07,0s.06,0,0,0l-.18-.1a2.2,2.2,0,0,1-.66-.63,2.66,2.66,0,0,1-.41-1.45,3.68,3.68,0,0,1,.2-1.16l0-.09.05-.1a8.9,8.9,0,0,1,1.67-2,21.38,21.38,0,0,1,1.82-1.53c1.24-.94,2.51-1.78,3.79-2.6s2.58-1.58,3.87-2.35,2.66-1.5,3.76-2.24a18.37,18.37,0,0,0,3.06-2.79,21.91,21.91,0,0,0,2.37-3.47,29.27,29.27,0,0,0,1.75-3.91l.37-1.05.12-.31.08-.18a2.68,2.68,0,0,1,.18-.33,1.83,1.83,0,0,1,.65-.59,2.38,2.38,0,0,1,.58-.22,5.5,5.5,0,0,1,1.5-.11c.44,0,.83.07,1.28.14l-1.47,1.78a5.82,5.82,0,0,1-.31-1.31,3.28,3.28,0,0,1,0-.82,2.22,2.22,0,0,1,.48-1.1,5,5,0,0,1,1.05-.88,7.62,7.62,0,0,1,1-.58,6.38,6.38,0,0,1,2.4-.63,3.74,3.74,0,0,1,2.79,1l.19.17.06.06a.17.17,0,0,0,.07,0,.29.29,0,0,0,.16,0,1.86,1.86,0,0,0,.85-.67.87.87,0,0,0,.11-.17l0,.08a1,1,0,0,0,.2.76,1,1,0,0,0,.27.28,1,1,0,0,0,.29.14l.12,0h0l-.2-.05a2,2,0,0,1-.65-.31,2.66,2.66,0,0,1-.66-.72,6.7,6.7,0,0,1-.83-2.39l-.07-.35.15-.34a13.82,13.82,0,0,1,1.88-3.27,13.09,13.09,0,0,1,2.69-2.62,16.15,16.15,0,0,1,3.23-1.83,15.77,15.77,0,0,1,3.61-1.06l-1.14,1a6.59,6.59,0,0,1,.36-1.12,3.73,3.73,0,0,1,.79-1.19,2.88,2.88,0,0,1,1.55-.79,3.1,3.1,0,0,1,.86,0,3.21,3.21,0,0,1,.85.26l.64.3.1.84.05.48a2.11,2.11,0,0,0,.11.38.72.72,0,0,0,.28.4,1,1,0,0,0,.54.16,2.48,2.48,0,0,0,.79-.1l-.49.3.41-.43.12-.19L387,356v-.06c0-.09,0-.05,0,0s.07.1,0,0a2.29,2.29,0,0,0-.85-.4,6.14,6.14,0,0,0-1.26-.26l-.27,0-.18-.1a5.2,5.2,0,0,1-1.12-.72,3,3,0,0,1-.59-.63,2.33,2.33,0,0,1-.28-.57,1.76,1.76,0,0,1,0-.89,1.79,1.79,0,0,1,.36-.8,2.84,2.84,0,0,1,.44-.42l.39-.24,0,0c0,.05.1-.11.17-.18a3.32,3.32,0,0,0,.24-.32,31.51,31.51,0,0,0,2-3.25c1.27-2.28,2.46-4.66,3.61-7l0-.08,0-.06c1.26-2,2.55-3.83,3.91-5.7s2.76-3.69,4.32-5.45a22.43,22.43,0,0,1,2.61-2.53,6.76,6.76,0,0,1,3.78-1.59,8.17,8.17,0,0,1,3.93.72,12.74,12.74,0,0,1,3.24,2.05l-1-.33a11.72,11.72,0,0,1,4.45.5,14.92,14.92,0,0,1,2,.81l.15.06h0a1.16,1.16,0,0,0-.31,0l-.19,0h.12l.64-.05a6.51,6.51,0,0,1,1.25.08,9.74,9.74,0,0,1,4.14,2,17.66,17.66,0,0,1,3.08,3.09l-1.14-.5c1.89-.18,3.73-.28,5.61-.31a29.72,29.72,0,0,1,5.75.38,7.39,7.39,0,0,1,.75.18,4.48,4.48,0,0,1,.79.25,3.62,3.62,0,0,1,.82.4c.28.19.61.43.69.5a8.65,8.65,0,0,0,2.08,1.19,26.24,26.24,0,0,0,5,1.49l-1.42,1.36a4.73,4.73,0,0,0-.44-1.49,2.37,2.37,0,0,0-.37-.53,1.12,1.12,0,0,0-.2-.18l-.09-.06s-.09,0,0,0l.11,0-2.12-.48-2.11-.57a41.5,41.5,0,0,1-4.15-1.43,32.26,32.26,0,0,1-4-1.91c-.65-.38-1.28-.77-1.9-1.21a12.8,12.8,0,0,1-1.83-1.52l1,.38a16.56,16.56,0,0,1-6.32-.76,32.63,32.63,0,0,1-5.71-2.36l.65.15a11.82,11.82,0,0,1-2.52-.15,9.72,9.72,0,0,1-2.41-.73,11.08,11.08,0,0,1-2.17-1.24,10.52,10.52,0,0,1-1.87-1.75l1.09.44a17.12,17.12,0,0,1-3.44.13,5.64,5.64,0,0,1-1.94-.44,2.46,2.46,0,0,1-1.11-.93,3.14,3.14,0,0,1-.3-.79,1.8,1.8,0,0,0-.05-.19,9.6,9.6,0,0,0-1.5-2.34c-.63-.78-1.33-1.57-2-2.28l.18.15a32.43,32.43,0,0,1-4.18-3.3,28.39,28.39,0,0,1-3.53-4,28.84,28.84,0,0,1-2.77-4.54,24.49,24.49,0,0,1-1.87-5.07l-.07-.3.14-.36a5.39,5.39,0,0,0,.28-1.18,6.46,6.46,0,0,0,0-1.32,7.4,7.4,0,0,0-.7-2.58,8.33,8.33,0,0,0-.67-1.2l-.39-.57a8.88,8.88,0,0,1-.5-.75,7.6,7.6,0,0,1-1-3.4,10.31,10.31,0,0,1,.39-3.38,10.51,10.51,0,0,1,1.41-3.12,3.93,3.93,0,0,1,.73-.79,1.8,1.8,0,0,1,.38-.23,2.42,2.42,0,0,1,.36-.1,1.46,1.46,0,0,1,.58,0,1.64,1.64,0,0,1,.29.16l.13.1.06.06v0a.31.31,0,0,0-.11-.09.24.24,0,0,0-.12-.05l0,0a2.48,2.48,0,0,0,.31-.05c.19,0,.4-.11.62-.18a20.67,20.67,0,0,0,2.62-1.23l-.36.35a10.52,10.52,0,0,1,3.21-3,21.57,21.57,0,0,1,3.74-1.9,36.51,36.51,0,0,1,3.9-1.32,40.12,40.12,0,0,1,4-.93l-.23.07c3-1.33,6.07-2.62,9.18-3.82.77-.3,1.56-.59,2.37-.85.4-.13.82-.26,1.29-.37a6.18,6.18,0,0,0,1.15-.17,47.68,47.68,0,0,0,4.5-1.74c1.51-.64,3-1.31,4.58-1.93l.63-.23c.14,0,.17-.06.4-.11l.29,0h.07a7.94,7.94,0,0,0,1-.29,20.12,20.12,0,0,0,2.2-.87,8.63,8.63,0,0,0,1-.53c.12-.06.28-.24.19-.12a.25.25,0,0,0,0,.09.45.45,0,0,0,0,.23.53.53,0,0,0,.08.29,1.12,1.12,0,0,0,.12.17c.17.13.13.08.1.08a4,4,0,0,0-1,0,8.39,8.39,0,0,0-1.09.15,11.29,11.29,0,0,0-4.09,1.92l-.2.15-.21,0-4.5.62.24-.07c-2.26,1.07-4.54,2.08-6.88,3-1.17.46-2.35.89-3.58,1.25s-2.45.61-3.66.91l-14.45,3.48.13,0a13,13,0,0,1-4.21,1.22,4.66,4.66,0,0,1-2.38-.34,3.61,3.61,0,0,1-1.77-1.78,8.64,8.64,0,0,1-.51-4.45,21.64,21.64,0,0,1,.88-4.2l0-.09.08-.1a17.93,17.93,0,0,0,2.46-4.76,6.45,6.45,0,0,0-.05-5,6.3,6.3,0,0,0-4-2.85,17.64,17.64,0,0,0-2.64-.54l-1.43-.22c-.48-.12-1-.22-1.43-.37a9.57,9.57,0,0,1-4.83-3.36,11.48,11.48,0,0,1-2-5.48,22,22,0,0,1,.15-5.74,30.53,30.53,0,0,1,1.34-5.55l.11-.3.34-.06a6.9,6.9,0,0,0,4.31-2.52,5.84,5.84,0,0,0,1-2.31,19.1,19.1,0,0,0,.27-2.7,20.36,20.36,0,0,1,1.65-5.43,42.55,42.55,0,0,1,2.59-5,38.55,38.55,0,0,1,7-8.76,10.65,10.65,0,0,1,5-2.78,16.2,16.2,0,0,0,5.11-1.7,25.91,25.91,0,0,0,4.54-3,16.56,16.56,0,0,0,2-1.87,5.77,5.77,0,0,0,.39-.51,1.15,1.15,0,0,0,.13-.24s0,0,0-.06,0,.16,0-.06a2,2,0,0,1,.16-.88c.09-.23.19-.45.29-.66a26.34,26.34,0,0,1,3-4.73,8.27,8.27,0,0,1,2.13-2,1.28,1.28,0,0,1,.9-.17,1.78,1.78,0,0,0,.55,0,7.66,7.66,0,0,0,1.27-.38,18.44,18.44,0,0,0,4.69-2.71,6.24,6.24,0,0,0,1.71-2,1.55,1.55,0,0,0,.15-1.12A1.72,1.72,0,0,0,424,177a4.28,4.28,0,0,0-2.42-.76,5.14,5.14,0,0,0-2.48.71,12.34,12.34,0,0,0-3.85,3.73l.05-.15a6.43,6.43,0,0,1-3.54,4.9,10.43,10.43,0,0,1-2.92,1c-1,.15-2,.22-2.93.45a11.33,11.33,0,0,0-5.05,2.8,15.83,15.83,0,0,0-3.45,4.71l0,0,0,0c-1,1.12-2,2.24-3.09,3.29a35.73,35.73,0,0,1-3.41,3A17.72,17.72,0,0,1,386.9,203a8.42,8.42,0,0,1-2.23.58,4.09,4.09,0,0,1-2.36-.35l-.08,0,0-.12a10,10,0,0,0-1.08-2.68,4.68,4.68,0,0,0-.88-1.09,3.82,3.82,0,0,0-.57-.39,1.4,1.4,0,0,0-.27-.11c-.09,0,0,0,0,0a1.47,1.47,0,0,0,.06.58,6,6,0,0,0,.2.69,1.87,1.87,0,0,1,.16.86,1,1,0,0,1-.72.61,9.37,9.37,0,0,1-3.05.28h.05a57.83,57.83,0,0,0-12.22,3.39,15.31,15.31,0,0,0-2.76,1.5,4.35,4.35,0,0,0-1.88,2.29,11.8,11.8,0,0,1-1.05,3.06,8,8,0,0,1-2.07,2.52,14.43,14.43,0,0,1-2.74,1.71c-.48.24-1,.46-1.46.68l-.73.32a3.46,3.46,0,0,1-.82.23,9.49,9.49,0,0,1-3.24-.25,27.3,27.3,0,0,1-3.09-.89A82.43,82.43,0,0,1,332.36,211l.13,0-2.05.41c-.69.08-1.38.17-2.08.23a17.74,17.74,0,0,1-4.18-.18,12.81,12.81,0,0,1-4-1.32,8.94,8.94,0,0,1-3.18-2.75l-.19-.28.35,0,.64,0,.17,0h0s0,0,0,0-.1.38,0,.3h0c-.06,0,0,0-.07,0h-.41l-1.27,0-2.53,0a4.53,4.53,0,0,1-2.52-.63,2.92,2.92,0,0,1-.85-1,3.81,3.81,0,0,1-.31-1.28,12.21,12.21,0,0,1,1-5A33.8,33.8,0,0,1,313.27,195Z" transform="translate(-24.89 -23.29)"/>
  </g>
  <g>
    <path class="cls-1" d="M261.77,164.46s-3.09-8-2.83-10.55,2.83-17.76,11.32-11.58,1.8,15.69,1.8,15.69-2.83,2.83-2.83,4.12S262.82,167.37,261.77,164.46Z" transform="translate(-24.89 -23.29)"/>
    <path class="cls-2" d="M261.63,164.51c-.7-1.92-1.59-3.76-2.48-5.65a21.58,21.58,0,0,1-1.17-3,6.84,6.84,0,0,1-.31-1.75,9.58,9.58,0,0,1,.12-1.69,18.51,18.51,0,0,1,1.95-6,18.93,18.93,0,0,1,1.7-2.74,10.4,10.4,0,0,1,2.27-2.32,5,5,0,0,1,3.18-1,7.9,7.9,0,0,1,3.18,1c.24.13.49.25.72.4l.68.46a9,9,0,0,1,1.31,1,9.45,9.45,0,0,1,2.12,2.68,11.14,11.14,0,0,1,1,6.8,14.23,14.23,0,0,1-.91,3.25,14.86,14.86,0,0,1-1.63,3l-.09.13-.08.08a28.39,28.39,0,0,0-2.22,2.34,4.82,4.82,0,0,0-.41.53l-.1.15s0-.06,0,0a3.91,3.91,0,0,1-.17.61,3.84,3.84,0,0,1-.45.62l-.43.37a6.13,6.13,0,0,1-.86.54,12.06,12.06,0,0,1-3.54,1.28,4.94,4.94,0,0,1-1.88.06A1.81,1.81,0,0,1,261.63,164.51Zm.28-.11a1.33,1.33,0,0,0,1.22.86,3.27,3.27,0,0,0,1.61-.34,8.44,8.44,0,0,0,2.7-2,5.37,5.37,0,0,0,.49-.6l.17-.27c0-.06,0-.16,0-.13a.25.25,0,0,0-.06.17,3.21,3.21,0,0,1,0-.39,3.75,3.75,0,0,1,.15-.69,7.61,7.61,0,0,1,.44-1,15.37,15.37,0,0,1,2.29-3.1l-.17.21a19.14,19.14,0,0,0,2-5,9.08,9.08,0,0,0-.28-5.17,11,11,0,0,0-3.26-4.39,5.2,5.2,0,0,0-2.49-1.17,3.42,3.42,0,0,0-2.56.7,9,9,0,0,0-2.66,5c-.46,1.91-.77,3.86-1.16,5.77-.07.45-.2,1-.23,1.34a8.91,8.91,0,0,0,0,1.28c.05,1,.16,2,.28,3A24.51,24.51,0,0,0,261.91,164.4Z" transform="translate(-24.89 -23.29)"/>
  </g>
  <g>
    <path class="cls-1" d="M158.07,98.84s-5.66-4.63-6.94-3.6-2.06,6.69,1.8,8.23,7.2,11.58,7.2,11.58,9.27,17,11.32,17.5,7.72-.26,9.52,1.8,1.81-5.15,0-7.72-10.8-6.95-12.6-9.52-8.75-12.61-8.5-15.18A2.67,2.67,0,0,0,158.07,98.84Z" transform="translate(-24.89 -23.29)"/>
    <path class="cls-2" d="M158,99c-1.18-.73-2.29-1.36-3.44-2-.57-.29-1.16-.57-1.72-.79A6.38,6.38,0,0,0,152,96c-.24-.06-.49,0-.41,0s0,0,0,.07-.09.18-.14.29a4.75,4.75,0,0,0-.22.75,6.3,6.3,0,0,0-.08,1.68,4.33,4.33,0,0,0,1.12,2.82,3.53,3.53,0,0,0,1.21.76,6.78,6.78,0,0,1,2,1.4,15.27,15.27,0,0,1,2.56,3.45,33.66,33.66,0,0,1,3,7.56l-.07-.17c1.34,2.92,2.74,5.84,4.33,8.64q1.2,2.1,2.53,4.11a31.94,31.94,0,0,0,2.87,3.79,5.27,5.27,0,0,0,.78.7,2.11,2.11,0,0,0,.83.11c.75,0,1.55,0,2.36,0a16.84,16.84,0,0,1,5.15.41,5.7,5.7,0,0,1,1.4.66,5.25,5.25,0,0,1,.66.56c0,.06.15,0-.2-.08a1,1,0,0,0-.67.13.57.57,0,0,0-.2.18s0-.08,0-.21a6.37,6.37,0,0,0,.08-1,12.19,12.19,0,0,0-.74-4.19,5.53,5.53,0,0,0-.41-.81c-.07-.1-.17-.2-.25-.3a3.45,3.45,0,0,0-.33-.32,16,16,0,0,0-1.73-1.33c-1.28-.86-2.62-1.74-4-2.61s-2.71-1.78-4.07-2.82a12.81,12.81,0,0,1-2-1.88,9.7,9.7,0,0,1-.76-1.1l-.66-1a87.46,87.46,0,0,1-4.85-8.49c-.36-.74-.7-1.5-1-2.27a11.66,11.66,0,0,1-.75-2.45,2.56,2.56,0,0,1-.07-.7v-.38c0-.11,0-.18,0-.28a2.6,2.6,0,0,0,0-1A2.31,2.31,0,0,0,158,99Zm.13-.27a2.73,2.73,0,0,1,2,1.63,3.5,3.5,0,0,1,.28,1.34,3.25,3.25,0,0,0,0,.33l0,.22a2.1,2.1,0,0,0,.14.48,23.73,23.73,0,0,0,2.26,4.06c1.74,2.66,3.63,5.25,5.51,7.84l.71,1a10,10,0,0,0,.68.85,9.61,9.61,0,0,0,1.57,1.32c1.23.9,2.61,1.71,4,2.6s2.73,1.73,4.08,2.75a20,20,0,0,1,2,1.7,6.25,6.25,0,0,1,1,1.22,7.24,7.24,0,0,1,.63,1.37,14.71,14.71,0,0,1,.68,5.32,8.29,8.29,0,0,1-.23,1.46,2.89,2.89,0,0,1-.37.91,2,2,0,0,1-.59.63,1.66,1.66,0,0,1-1.25.24,2.19,2.19,0,0,1-1.18-.75c-.11-.1-.14-.16-.24-.25a3.36,3.36,0,0,0-.74-.43,16.54,16.54,0,0,0-4.42-.83c-.8-.08-1.61-.13-2.46-.26-.22,0-.43-.07-.66-.13a2.23,2.23,0,0,1-.39-.12l-.26-.13-.16-.13a5.77,5.77,0,0,1-.94-1c-2-2.68-3.51-5.49-5.26-8.22s-3.5-5.44-5.26-8.17l-.07-.16a69.65,69.65,0,0,0-3.43-6.86,17.5,17.5,0,0,0-2.1-2.91,4.51,4.51,0,0,0-1.16-.9,5.7,5.7,0,0,1-2-1.45,5.81,5.81,0,0,1-1.18-2.16A7,7,0,0,1,149,98.8a8.06,8.06,0,0,1,.36-2.23,6.43,6.43,0,0,1,.46-1.1,2.46,2.46,0,0,1,1.12-1.12,2.29,2.29,0,0,1,1.53.06,8,8,0,0,1,1,.47A15.07,15.07,0,0,1,155.19,96,24.42,24.42,0,0,1,158.14,98.71Z" transform="translate(-24.89 -23.29)"/>
  </g>
  <g>
    <path class="cls-1" d="M124.88,367c-.19,0-1.24,0-2.71,0-4.4,0-12.6.29-13,2.61-.51,3.08-3.6,0-6.43,3.34s-3.09,4.37-2.57,6.18-2,11.58,12.24,8.49,24-7.21,20.69-14.41-8.42-6.18-8.42-6.18" transform="translate(-24.89 -23.29)"/>
    <path class="cls-2" d="M124.88,367.11c-3.74.5-7.47.77-11,1.47a15.28,15.28,0,0,0-2.47.69,3.19,3.19,0,0,0-.86.46c-.08.07-.11.12-.08.09s0-.09,0,0l-.11.49a2.54,2.54,0,0,1-.2.53,1.91,1.91,0,0,1-.33.55,2.42,2.42,0,0,1-1.11.83,5.7,5.7,0,0,1-1.84.26,4.64,4.64,0,0,0-2.13.35,6.2,6.2,0,0,0-1.8,1.49,17.5,17.5,0,0,0-1.72,2,2.82,2.82,0,0,0-.58,2.17,6.21,6.21,0,0,1,.15,1.49c0,.48,0,.94,0,1.39a9.21,9.21,0,0,0,.39,2.64,4.47,4.47,0,0,0,.25.6,2.32,2.32,0,0,0,.3.56c.12.17.23.36.36.52l.47.43a1.8,1.8,0,0,0,.5.37l.54.32c.41.14.81.28,1.22.39l1.29.16,1.32,0a8.47,8.47,0,0,0,1.32-.15c.45-.08.88-.11,1.32-.23.89-.24,1.74-.41,2.64-.67,1.78-.5,3.57-1,5.33-1.51a54.48,54.48,0,0,0,10-3.95,10.41,10.41,0,0,0,3.7-3,4.33,4.33,0,0,0,.28-4.13,13,13,0,0,0-2.68-4.39,6.8,6.8,0,0,0-4.65-2.15l-.06-.29a7,7,0,0,1,5.68,1.26,12.94,12.94,0,0,1,3.86,4.59,7.4,7.4,0,0,1,.9,3.19,6.61,6.61,0,0,1-.83,3.41,9.5,9.5,0,0,1-2.11,2.52,16.67,16.67,0,0,1-2.51,1.78,41.56,41.56,0,0,1-10.88,3.91q-2.77.66-5.56,1.13c-.92.16-1.92.24-2.87.34-.48.05-1,0-1.47,0a10.35,10.35,0,0,1-1.47,0,8.52,8.52,0,0,1-5.54-2.1,6.21,6.21,0,0,1-1.56-2.58,12.5,12.5,0,0,1-.49-2.87L99.72,380a4.17,4.17,0,0,0-.26-1.27,4.25,4.25,0,0,1-.15-1.65,5.8,5.8,0,0,1,.48-1.56,18.2,18.2,0,0,1,1.52-2.56,7.53,7.53,0,0,1,2.24-2.33,6.33,6.33,0,0,1,3.27-.84,3.71,3.71,0,0,0,.93-.1s0,0,0,0,0,0,0,0a.22.22,0,0,0,0-.12l.06-.2a2.37,2.37,0,0,1,.23-.68,2.85,2.85,0,0,1,.82-1,5.5,5.5,0,0,1,1.62-.82,15.76,15.76,0,0,1,3-.59,36.66,36.66,0,0,1,5.73-.1,44.08,44.08,0,0,1,5.63.63Z" transform="translate(-24.89 -23.29)"/>
  </g>
  <g>
    <path class="cls-1" d="M369.76,371.68s-5.32-3.43-2.06,3.6,11.66,8.92,11.66,8.92,6.69,5.49,6.69,7.21,8.75,1.71,8.92,3.43,7.89-3.09,8.07-8.41,8.92,0,8.92,0,7.2,1.89,4.11-6.52-14.58-8.4-15.26-4.28-5,5.66-5.32,2.4-3.78-3.09-7.55-1.72-10.29,4.12-10.63-.68S369.76,371.68,369.76,371.68Z" transform="translate(-24.89 -23.29)"/>
    <path class="cls-2" d="M369.72,371.83a6.54,6.54,0,0,0-1.33-.51,1.68,1.68,0,0,0-1.11,0c-.15.09-.17.41-.1.82a6.77,6.77,0,0,0,.4,1.23,15.29,15.29,0,0,0,2.91,4.49,16.77,16.77,0,0,0,4.24,3.18,20.82,20.82,0,0,0,4.92,1.92l.31.08.22.18c1.45,1.19,2.85,2.36,4.18,3.69a24.11,24.11,0,0,1,1.94,2.16,6.14,6.14,0,0,1,.88,1.51,3.55,3.55,0,0,1,.15.71c0,.22,0,.05,0,0a.71.71,0,0,0-.08-.21c-.13-.18-.09-.08,0,0a12.08,12.08,0,0,0,2.24.76c.86.21,1.75.42,2.65.66a10.59,10.59,0,0,1,2.84,1.1,1.79,1.79,0,0,1,.77,1,1.42,1.42,0,0,1,.05.22s0,0,0,0a.51.51,0,0,0-.12-.18c-.07-.05-.1-.09-.17-.1s0,0-.05,0a2.1,2.1,0,0,0,.92-.23,12.08,12.08,0,0,0,4.12-3.09,7.79,7.79,0,0,0,2.09-4.6,4,4,0,0,1,.32-1.51,2.28,2.28,0,0,1,1.21-1.14,5.06,5.06,0,0,1,3-.08,22.1,22.1,0,0,1,5.24,2l-.19-.08c1.2.22,2.72.06,3.23-.65s.48-1.95.08-3.21a11.44,11.44,0,0,0-1.64-3.51,9.34,9.34,0,0,0-2.79-2.52,10.08,10.08,0,0,0-3.57-1.25,8,8,0,0,0-3.6.18,3,3,0,0,0-1.22.67,1.07,1.07,0,0,0-.22.34s0,.05,0,.08a.65.65,0,0,0,0,.16l-.15.66a6.61,6.61,0,0,1-3.5,4.38,5.23,5.23,0,0,1-.82.26,3.75,3.75,0,0,1-1,.07,3.2,3.2,0,0,1-2-.89,5,5,0,0,1-1.06-2.7,1,1,0,0,0-.5-.69,3.16,3.16,0,0,0-1.41-.23,13.59,13.59,0,0,0-3.82.82c-1.36.46-2.78.93-4.26,1.29a9.82,9.82,0,0,1-4.86.21,3.39,3.39,0,0,1-2.19-1.88,4.54,4.54,0,0,1-.23-.68l-.08-.65-.1-1a3.28,3.28,0,0,0-.83-1.51,5.43,5.43,0,0,0-1.65-1A12.73,12.73,0,0,0,369.72,371.83Zm.07-.3a11.34,11.34,0,0,1,4.42,0,6.54,6.54,0,0,1,2.2.95,4.45,4.45,0,0,1,1.5,2.08l.15.63.06.32.06.22.1.42c.05.13.12.23.16.34a1.47,1.47,0,0,0,1.08.72,8.66,8.66,0,0,0,3.71-.57c1.31-.41,2.61-1,4-1.52a16.27,16.27,0,0,1,4.6-1.21,5.61,5.61,0,0,1,2.85.42,4,4,0,0,1,2.18,2.55c.15.48.22,1.11.25,1.14s.11.2.08.2-.11,0-.05-.06.08,0,.11,0a1.43,1.43,0,0,1,.22-.08,2.86,2.86,0,0,0,1-.85,4.59,4.59,0,0,0,.67-1.41l.1-.4.08-.36a2.06,2.06,0,0,1,.14-.44,4,4,0,0,1,1-1.46,6,6,0,0,1,2.56-1.4,11.05,11.05,0,0,1,5-.12,13,13,0,0,1,4.51,1.8,11.58,11.58,0,0,1,3.47,3.43,11.3,11.3,0,0,1,1.09,2.17,10.52,10.52,0,0,1,.36,1.13c.09.38.23.74.29,1.14s.14.79.18,1.2a10.93,10.93,0,0,1,0,1.28,4.15,4.15,0,0,1-1.13,2.58,3.9,3.9,0,0,1-2.54,1,7.42,7.42,0,0,1-2.44-.27l-.12,0-.08-.05a17.88,17.88,0,0,0-4.73-2.26,4.21,4.21,0,0,0-2.37-.1c-.68.24-1,1-1,1.81a9.47,9.47,0,0,1-2.23,5.21,15.65,15.65,0,0,1-1.94,2,11.86,11.86,0,0,1-2.34,1.69,3.4,3.4,0,0,1-1.67.5,1.4,1.4,0,0,1-.39-.07,1.15,1.15,0,0,1-.44-.3,1.07,1.07,0,0,1-.28-.47,1.82,1.82,0,0,0-.05-.2V395c.05.12,0,.06-.11,0a9.68,9.68,0,0,0-2.33-.57L389,394a10.61,10.61,0,0,1-3-.8,2.35,2.35,0,0,1-1-.9,1.72,1.72,0,0,1-.21-.52c-.05-.19-.05-.47-.06-.37s0,.08,0,.05a5.26,5.26,0,0,0-.56-.8,21,21,0,0,0-1.72-1.87c-1.26-1.22-2.58-2.46-3.93-3.6l.54.26a20.22,20.22,0,0,1-5.53-2.43,17,17,0,0,1-4.5-4,14.94,14.94,0,0,1-2.65-5.32,6.79,6.79,0,0,1-.26-1.53,2.46,2.46,0,0,1,.09-.87,1.25,1.25,0,0,1,.71-.8,2.13,2.13,0,0,1,1.65.23A6.18,6.18,0,0,1,369.79,371.53Z" transform="translate(-24.89 -23.29)"/>
  </g>
  <g>
    <path class="cls-1" d="M434.94,282.31c-2.06,0,0,4.63-2.06,0s-3.08-.52-6.69,1-13.89-5.15-11.83,3.6,14.41,14.92,20.58,10.29S437,282.31,434.94,282.31Z" transform="translate(-24.89 -23.29)"/>
    <path class="cls-2" d="M434.94,282.46a.73.73,0,0,0-.73.5,2.68,2.68,0,0,0-.09,1.07c0,.1,0,.17,0,.32s0,0,0,.08a.23.23,0,0,1-.25.15c-.17,0-.12-.06-.16-.08l-.05-.05-.1-.15-.29-.51q-.27-.5-.57-1a5.93,5.93,0,0,0-1.25-1.68c-.11-.13-.22-.11-.3-.18s-.11,0-.14.05a4,4,0,0,0-.51.43,12.46,12.46,0,0,1-3.7,3.11,5.46,5.46,0,0,1-2.9.34,15.16,15.16,0,0,1-2.38-.49c-1.49-.41-2.9-.95-4.27-1.21a3.26,3.26,0,0,0-1.83.08,1.66,1.66,0,0,0-.81,1.46,6.74,6.74,0,0,0,.21,2.12l.35,1c.06.18.1.35.17.52l.26.49.51,1,.65.89a5.5,5.5,0,0,0,.7.83l.75.78a19.39,19.39,0,0,0,3.5,2.52c.6.38,1.26.66,1.88,1s1.3.56,2,.75a14,14,0,0,0,4,.65,9.11,9.11,0,0,0,3.63-.8,7.83,7.83,0,0,0,4-6.11,11.49,11.49,0,0,0-.09-4.33,8.36,8.36,0,0,0-.73-2.09,4.46,4.46,0,0,0-.61-.92A1.34,1.34,0,0,0,434.94,282.46Zm0-.3a1.71,1.71,0,0,1,1.08.6,5.78,5.78,0,0,1,.73.92,14.17,14.17,0,0,1,1.13,2.06,15.4,15.4,0,0,1,1.32,4.62,9.58,9.58,0,0,1-.8,5.06,8.79,8.79,0,0,1-3.75,3.86,10.36,10.36,0,0,1-5.18,1.09,15.92,15.92,0,0,1-4.89-1.11,17.69,17.69,0,0,1-7.62-5.82,19.43,19.43,0,0,1-2.31-4.15,19.1,19.1,0,0,1-.74-2.25,10.84,10.84,0,0,1-.29-2.38,3.57,3.57,0,0,1,.23-1.3,2.46,2.46,0,0,1,.9-1.15,4.75,4.75,0,0,1,2.58-.69,29,29,0,0,1,4.69.42c.73.12,1.45.2,2.11.26a3.91,3.91,0,0,0,1.58-.11,22.4,22.4,0,0,0,3.64-2.21,3,3,0,0,1,1.53-.5,1.86,1.86,0,0,1,1,.28,3,3,0,0,1,.56.56,9.11,9.11,0,0,1,1,2.26q.17.56.36,1.08c.07.18.13.36.2.52l.05.1h0s0,0-.11,0a.21.21,0,0,0-.2.11v0a1.47,1.47,0,0,0,0-.25,3.54,3.54,0,0,1,.21-1.18A1,1,0,0,1,434.94,282.16Z" transform="translate(-24.89 -23.29)"/>
  </g>
</svg>
